<?xml version="1.0" standalone="no"?>
<!DOCTYPE svg PUBLIC "-//W3C//DTD SVG 20010904//EN"
 "http://www.w3.org/TR/2001/REC-SVG-20010904/DTD/svg10.dtd">
<svg version="1.0" xmlns="http://www.w3.org/2000/svg"
 width="480.000000pt" height="480.000000pt" viewBox="0 0 480.000000 480.000000"
 preserveAspectRatio="xMidYMid meet">
<metadata>
Created by potrace 1.14, written by Peter Selinger 2001-2017
</metadata>
<g transform="translate(0.000000,480.000000) scale(0.100000,-0.100000)"
fill="#000000" stroke="none">
<path d="M0 2619 c0 -1741 3 -2179 13 -2173 10 6 10 4 0 -7 -10 -9 -13 -69
-13 -226 l0 -213 580 1 c326 0 578 5 575 10 -3 4 -43 6 -88 2 l-82 -6 24 27
c14 14 30 26 37 26 7 0 16 5 20 12 5 8 2 9 -9 5 -11 -4 -17 -1 -17 9 0 11 7
13 28 8 20 -4 23 -3 12 5 -8 5 -11 13 -7 17 4 4 12 3 18 -3 8 -8 7 -18 -5 -34
-22 -32 -20 -42 4 -27 11 7 20 18 20 24 0 7 6 14 13 16 19 8 37 -2 37 -19 0
-9 -6 -13 -14 -10 -14 5 -36 -10 -36 -25 0 -15 29 -8 48 12 l19 21 6 -22 c4
-16 11 -20 26 -16 12 3 23 1 26 -3 3 -4 -9 -7 -26 -6 -16 1 -32 -1 -35 -6 -3
-4 -4 -8 -2 -9 2 0 25 -3 52 -5 41 -5 52 -2 74 18 l25 23 -6 -22 c-4 -20 -1
-23 22 -23 15 0 32 5 39 12 9 9 12 9 12 0 0 -9 42 -12 159 -12 l159 0 11 32
c15 42 0 59 -30 32 -20 -17 -22 -17 -16 -1 4 9 2 17 -3 17 -15 0 -12 27 5 43
11 12 12 17 2 20 -7 4 -6 6 4 6 9 1 24 11 32 23 14 20 18 21 27 8 9 -13 13
-11 30 10 12 15 18 18 14 8 -4 -13 -1 -18 12 -18 14 0 15 -3 6 -12 -7 -7 -12
-17 -12 -23 1 -5 9 0 19 12 10 12 21 20 24 17 10 -11 47 7 40 19 -5 8 -2 8 9
0 8 -7 18 -10 21 -7 8 8 37 -21 37 -36 0 -6 5 -8 10 -5 6 4 8 15 5 24 -3 10 1
24 10 31 18 15 20 37 4 42 -8 3 -7 8 3 18 21 22 28 46 17 57 -7 7 -5 22 5 44
12 28 15 30 15 12 1 -12 -4 -25 -9 -28 -6 -4 -7 -11 -4 -17 4 -6 10 -5 15 3 9
15 11 11 13 -33 1 -20 -2 -27 -13 -25 -8 1 -17 -6 -19 -17 -2 -11 0 -16 7 -12
6 4 13 -5 17 -21 5 -17 3 -28 -4 -31 -7 -2 -10 -7 -8 -11 3 -4 0 -13 -5 -21
-6 -10 -7 0 -4 30 4 42 4 44 -9 21 -15 -28 -3 -82 17 -78 7 1 12 -11 12 -30 1
-18 4 -36 9 -40 5 -4 5 2 2 15 -5 16 -3 22 7 22 9 0 18 6 20 13 3 6 7 1 8 -13
3 -35 6 -62 8 -82 0 -10 8 -18 17 -18 10 0 14 6 11 15 -4 8 -2 17 3 20 5 3 11
-3 15 -14 4 -14 16 -19 54 -19 l48 -2 -4 73 c-5 84 -9 100 -23 92 -6 -4 -10 5
-10 19 0 14 6 29 14 33 7 4 16 15 20 23 6 15 2 -15 -5 -35 -2 -5 1 -12 6 -15
6 -3 14 23 19 60 5 36 11 57 14 47 2 -9 7 -17 12 -17 4 0 7 -12 6 -27 0 -16 3
-29 8 -30 5 -1 12 -7 16 -13 5 -8 11 -7 23 4 11 12 17 13 20 3 3 -6 6 -1 6 12
1 24 2 24 15 6 12 -16 16 -17 30 -6 13 11 16 11 16 0 0 -9 3 -10 8 -4 4 6 13
11 20 13 17 3 43 -23 34 -33 -4 -5 -1 -5 6 -1 6 4 12 14 12 22 0 8 -5 12 -10
9 -13 -8 -13 8 -1 20 5 6 7 23 4 40 -5 26 -7 27 -14 10 -5 -15 -8 -8 -8 23 -1
23 -6 42 -12 42 -5 0 -8 4 -4 9 3 5 1 12 -5 16 -5 3 -10 19 -10 35 0 22 -4 28
-15 24 -11 -4 -15 1 -15 17 0 13 -5 31 -10 39 -8 13 -10 13 -10 -1 0 -29 -29
-16 -41 19 -8 25 -14 31 -20 21 -7 -11 -9 -10 -9 4 0 9 -5 17 -10 17 -6 0 -20
11 -32 25 -11 13 -26 22 -31 18 -6 -3 -7 -1 -4 5 4 5 3 21 -2 34 -8 22 -9 22
-15 -10 -6 -24 -13 -32 -30 -32 -14 0 -28 -11 -40 -35 -20 -36 -30 -42 -41
-25 -4 6 -11 8 -16 5 -5 -4 -9 1 -9 9 0 9 5 15 12 13 6 -1 14 6 16 15 2 12 -1
16 -10 13 -9 -4 -14 3 -16 21 -2 30 -10 46 -20 40 -4 -2 -7 12 -7 31 1 23 8
41 21 50 15 11 16 15 5 22 -8 5 -11 16 -8 24 3 9 1 18 -6 21 -7 2 -4 5 6 5 21
1 23 19 2 27 -8 4 -15 15 -15 26 0 14 5 18 15 14 8 -3 15 0 16 7 1 7 4 1 8
-12 4 -14 13 -27 20 -29 10 -3 11 2 6 19 -7 21 -6 22 9 10 9 -8 20 -10 24 -6
4 4 2 10 -4 12 -7 2 -10 13 -7 23 3 11 9 17 14 14 5 -3 9 3 10 13 0 16 1 16 8
-2 5 -12 3 -30 -5 -47 -19 -36 -18 -41 6 -35 11 3 18 1 15 -3 -3 -5 -1 -11 5
-15 5 -3 10 -15 10 -26 0 -11 5 -17 10 -14 7 4 9 -2 7 -17 -4 -26 18 -52 48
-56 17 -2 16 0 -4 11 -17 10 -20 16 -10 19 8 3 26 -6 40 -19 15 -13 35 -26 45
-27 11 -2 20 -12 22 -24 3 -22 22 -31 22 -11 0 8 4 8 14 0 8 -7 17 -8 20 -3 7
11 2 54 -8 70 -4 7 -1 12 8 12 9 0 18 -11 22 -25 4 -15 12 -24 22 -23 8 2 17
-3 19 -9 3 -7 -3 -13 -12 -13 -15 0 -15 -3 1 -30 10 -16 21 -25 24 -20 7 12
51 -22 54 -42 1 -9 8 -23 15 -32 7 -9 11 -23 7 -31 -3 -9 -2 -14 3 -10 10 6
51 -46 51 -64 0 -6 5 -11 10 -11 14 0 55 -71 53 -90 -2 -10 -1 -11 3 -2 4 9
15 4 39 -16 25 -22 39 -28 64 -24 32 4 40 19 19 40 -9 9 -9 12 3 13 7 1 17 1
21 0 4 0 4 7 1 16 -5 14 0 15 35 11 28 -4 42 -2 45 7 3 7 24 15 47 19 24 4 61
17 84 30 52 30 112 41 132 25 20 -16 18 -43 -2 -35 -9 3 -14 1 -12 -5 2 -6 7
-10 11 -9 10 2 57 -47 57 -59 0 -4 17 -13 38 -19 26 -8 29 -10 10 -8 -31 4
-36 -5 -13 -24 12 -10 13 -16 4 -27 -9 -10 -8 -18 5 -31 9 -10 13 -22 9 -27
-5 -4 -3 -6 2 -3 6 3 16 0 23 -8 11 -12 9 -14 -13 -14 -15 0 -24 -4 -20 -10 4
-6 11 -8 16 -5 5 4 9 -1 9 -10 0 -13 -4 -14 -20 -5 -16 9 -18 8 -14 -5 4 -9 1
-15 -7 -15 -11 0 -11 -2 0 -9 21 -13 24 -44 4 -37 -13 5 -13 4 -4 -8 14 -16 4
-46 -15 -46 -8 0 -14 -7 -14 -16 0 -9 -5 -12 -12 -8 -6 4 -8 3 -4 -4 3 -5 0
-12 -6 -15 -7 -3 348 -6 790 -6 l802 -1 0 2400 0 2400 -2400 0 -2400 0 0
-2181z m1097 1520 c62 -25 79 -34 111 -57 17 -12 32 -20 32 -16 0 3 11 -1 25
-10 18 -12 25 -13 25 -4 1 7 10 2 20 -11 11 -13 20 -18 20 -12 0 5 20 -9 45
-33 25 -25 45 -40 45 -35 0 5 4 9 9 9 4 0 6 -11 3 -25 -4 -23 4 -30 30 -26 4
0 5 -6 2 -14 -4 -9 -1 -15 7 -15 13 0 109 -99 109 -112 0 -7 -42 -33 -47 -30
-10 7 -33 0 -28 -8 10 -16 -7 -11 -29 9 -22 19 -106 44 -106 31 0 -4 7 -10 15
-14 8 -3 15 -11 15 -18 0 -8 -3 -9 -8 -3 -4 6 -24 19 -44 30 -37 19 -49 35
-27 35 5 0 8 4 4 9 -3 6 -15 8 -27 6 -11 -3 -18 -1 -14 2 3 4 -4 17 -16 30
-22 24 -21 27 6 17 9 -3 13 -10 10 -15 -3 -5 0 -10 5 -10 41 -5 70 -20 65 -33
-4 -9 4 -13 22 -13 l28 0 -29 20 c-31 23 -80 75 -80 85 -1 17 -27 52 -35 47
-4 -3 -18 7 -29 21 -12 15 -21 23 -21 18 -1 -5 -9 1 -19 13 -11 13 -41 32 -67
44 -27 11 -52 26 -56 32 -4 7 -29 12 -56 11 -42 0 -49 2 -45 17 9 33 80 48
130 28z m1443 -65 c0 -16 30 -40 30 -25 0 6 -3 11 -7 11 -5 0 -9 14 -10 30 -1
18 2 28 7 25 6 -4 10 -13 10 -21 0 -8 4 -14 10 -14 5 0 7 7 4 15 -7 17 11 21
22 4 5 -8 9 -8 14 1 6 9 13 9 29 1 17 -10 21 -9 21 4 0 14 3 14 29 1 16 -9 32
-11 37 -6 5 5 10 -12 11 -43 1 -39 -1 -44 -6 -22 -5 25 -8 27 -14 12 -4 -10
-11 -15 -17 -12 -6 3 -10 -4 -10 -17 l0 -22 -16 22 c-9 13 -22 21 -30 18 -7
-3 -16 3 -19 13 -4 14 -12 17 -27 13 l-21 -5 21 -18 c12 -9 22 -23 22 -31 0
-10 3 -9 10 2 8 11 9 8 4 -12 -4 -17 -2 -28 4 -28 6 0 8 -10 6 -22 -2 -13 2
-7 10 12 l14 35 3 -34 c4 -32 5 -34 21 -18 15 15 17 15 22 0 4 -9 4 -25 0 -35
-4 -13 2 -28 16 -43 14 -15 18 -25 11 -30 -6 -3 -11 -18 -11 -32 0 -22 -2 -24
-15 -13 -21 17 -29 7 -21 -27 6 -21 9 -24 17 -12 7 11 9 10 9 -6 1 -19 1 -19
11 -1 9 15 13 16 20 5 7 -11 9 -9 10 6 1 11 1 23 0 28 -2 12 17 8 31 -6 9 -10
15 -11 24 -3 9 8 7 18 -8 39 -11 15 -23 25 -28 22 -17 -10 -23 18 -6 30 9 7
15 19 13 26 -2 8 -2 11 0 7 3 -5 13 -8 24 -8 10 0 19 -6 20 -12 0 -7 4 -2 10
10 10 27 1 52 -12 31 -7 -11 -12 -11 -26 4 -12 12 -14 20 -7 25 18 12 24 42
13 60 -14 22 3 88 21 84 7 -2 17 3 21 10 7 10 9 8 9 -5 0 -10 4 -16 9 -12 5 3
11 -4 13 -15 3 -19 5 -19 33 -4 18 9 31 11 33 5 2 -5 10 -7 18 -4 18 7 19 -21
0 -36 -11 -9 -18 -8 -30 4 -15 15 -19 15 -48 -6 -18 -13 -35 -27 -36 -31 -2
-5 -8 -6 -13 -2 -11 6 -6 -32 5 -43 4 -4 14 1 22 11 8 12 14 15 14 7 0 -11 3
-11 15 -1 8 6 18 9 23 6 5 -3 19 4 32 16 25 23 51 30 71 17 21 -13 2 -36 -35
-43 -40 -8 -49 -17 -40 -40 6 -15 8 -15 21 1 14 17 14 17 10 -5 -3 -12 -1 -20
4 -16 5 3 9 12 9 20 0 14 2 14 15 0 17 -17 9 -50 -11 -42 -16 6 -19 -10 -4
-19 6 -3 10 -12 10 -18 0 -8 -3 -7 -9 2 -5 8 -16 11 -25 8 -9 -4 -16 -1 -17 6
0 9 -2 9 -6 0 -2 -7 -11 -13 -18 -13 -18 0 -24 -21 -13 -44 7 -13 7 -16 -1
-12 -6 4 -11 0 -11 -11 0 -14 -2 -15 -9 -5 -6 10 -10 8 -15 -10 -6 -22 -7 -22
-18 -4 -8 15 -8 21 0 24 7 2 12 15 12 28 0 35 -18 20 -26 -21 -3 -19 -10 -35
-15 -35 -5 0 -9 -9 -9 -20 0 -11 7 -20 15 -20 8 0 15 -4 15 -10 0 -5 6 -7 14
-4 8 3 12 12 10 19 -3 7 -1 16 5 20 6 3 9 0 5 -8 -3 -8 0 -18 7 -23 8 -4 10
-3 5 4 -9 16 7 15 22 0 9 -9 12 -5 13 17 0 28 1 29 9 8 9 -22 30 -32 30 -15 0
5 14 7 31 6 27 -2 30 1 26 19 -15 59 -18 102 -8 87 9 -13 11 -12 11 5 0 17 2
17 10 5 9 -14 14 -16 52 -19 9 0 24 -8 33 -18 14 -14 18 -14 26 -2 6 10 9 10
9 2 0 -21 17 -15 25 10 4 12 8 24 9 27 1 3 5 15 10 28 4 12 11 22 16 22 16 0
22 -21 10 -35 -10 -12 -9 -15 4 -15 18 0 23 -54 6 -65 -5 -3 -10 -2 -10 2 0
22 -38 9 -54 -18 -12 -21 -23 -28 -34 -24 -8 3 -19 0 -24 -7 -11 -18 -10 -40
2 -33 6 3 10 0 10 -7 0 -9 3 -9 10 2 9 13 11 13 20 0 7 -11 10 -11 10 -2 0 7
5 10 11 6 6 -3 15 0 20 7 7 11 9 10 9 -5 0 -15 3 -16 14 -7 16 14 25 4 21 -22
-2 -9 1 -15 6 -11 5 3 9 0 9 -7 0 -6 8 -9 20 -6 13 3 20 0 20 -10 0 -8 5 -11
10 -8 6 4 10 14 9 23 -3 36 2 52 21 70 12 11 18 26 15 34 -4 9 -2 19 4 23 6 3
11 -1 11 -10 0 -14 6 -16 28 -11 27 6 27 6 6 -12 -24 -20 -21 -42 6 -42 10 0
22 -4 25 -10 9 -14 48 -12 65 3 8 6 6 1 -5 -12 -20 -24 -20 -24 0 -17 16 6 15
2 -8 -21 -15 -16 -27 -33 -27 -38 0 -5 13 5 29 23 17 17 35 32 42 32 7 0 10
-3 6 -6 -3 -4 1 -13 10 -22 13 -13 19 -13 37 -3 17 11 19 11 9 0 -15 -16 -17
-33 -3 -24 6 3 10 2 10 -3 0 -5 11 -7 25 -4 14 2 25 9 25 14 0 6 7 5 15 -2 12
-10 18 -10 30 0 8 7 15 18 15 25 0 8 6 16 13 18 7 3 5 6 -5 6 -20 1 -24 16 -8
26 6 3 10 12 10 18 0 7 -4 6 -10 -3 -8 -13 -10 -13 -10 1 0 9 7 20 16 23 10 4
13 13 9 27 -5 15 -4 19 4 15 6 -4 15 4 21 20 6 15 13 24 17 21 3 -4 24 17 45
46 21 28 43 52 48 52 5 0 17 7 27 15 10 8 32 25 49 37 31 22 52 63 32 63 -5 0
-6 5 -3 10 3 6 1 10 -5 10 -6 0 -8 5 -5 10 10 16 82 12 100 -7 13 -13 16 -28
11 -69 -4 -37 -2 -54 7 -57 9 -4 9 -8 -2 -15 -9 -7 -10 -12 -2 -16 6 -4 9 -11
6 -16 -3 -5 4 -12 16 -15 21 -7 21 -8 -6 -25 l-28 -18 32 -16 c39 -20 39 -24
2 -18 -16 2 -37 -1 -48 -7 -12 -7 -13 -10 -4 -11 11 0 11 -3 0 -17 -12 -14
-12 -16 1 -9 8 4 6 1 -4 -8 -19 -15 -18 -16 5 -25 13 -5 18 -10 12 -10 -18 -1
-16 -30 2 -37 22 -9 7 -26 -16 -19 -22 7 -26 -14 -6 -34 10 -10 9 -11 -4 -6
-9 3 -23 -3 -35 -17 -10 -12 -12 -17 -4 -11 13 10 16 8 16 -7 0 -13 -7 -18
-20 -17 -23 2 -39 -40 -23 -60 6 -9 6 -13 -2 -13 -7 0 -8 -8 -1 -25 7 -17 6
-25 -1 -25 -6 0 -8 -7 -5 -16 4 -11 2 -15 -7 -11 -8 3 -14 -4 -15 -21 -1 -14
-7 -31 -13 -38 -5 -7 -9 -18 -8 -26 4 -21 -11 -46 -38 -63 -14 -10 -22 -12
-19 -6 4 6 0 11 -8 11 -31 0 -16 -28 19 -34 50 -10 53 -26 6 -27 -23 -1 -47
-2 -53 -3 -7 -1 -18 1 -23 5 -6 4 -19 1 -30 -8 -18 -13 -12 -14 63 -10 71 4
84 3 92 -12 6 -12 5 -22 -2 -29 -15 -15 -38 -15 -38 -1 0 5 -4 7 -10 4 -16
-10 -12 -23 10 -30 11 -4 18 -10 15 -15 -12 -20 -75 27 -75 56 0 9 -11 12 -35
10 -41 -3 -55 -13 -29 -22 27 -8 64 -26 42 -20 -10 3 -18 1 -18 -5 0 -6 -4 -8
-10 -4 -5 3 -5 -7 1 -25 6 -17 9 -37 6 -45 -4 -10 -1 -12 10 -8 11 4 14 2 9
-5 -4 -6 3 -16 16 -23 29 -16 48 -35 48 -48 0 -6 5 -11 10 -11 6 0 10 -7 10
-15 0 -8 -6 -15 -12 -15 -7 0 1 -9 19 -20 18 -10 39 -30 48 -43 19 -29 30
-183 13 -193 -7 -4 -6 -9 3 -15 21 -12 -31 -9 -59 4 -18 8 -26 7 -39 -5 -14
-15 -12 -17 26 -28 23 -6 52 -9 64 -6 12 3 16 3 9 0 -6 -3 -10 -10 -6 -15 3
-5 0 -9 -6 -9 -6 0 -9 -4 -6 -9 3 -4 -7 -6 -22 -4 -21 4 -24 2 -12 -6 8 -6 15
-15 15 -21 0 -6 7 -15 15 -21 11 -8 9 -9 -9 -4 -20 6 -22 5 -13 -11 7 -13 6
-24 -4 -40 -13 -19 -13 -22 2 -28 13 -5 14 -9 4 -22 -11 -12 -11 -17 0 -27 10
-10 11 -9 5 2 -5 10 -4 12 4 7 20 -13 1 -26 -32 -23 -26 2 -31 -1 -29 -17 2
-12 -1 -16 -9 -11 -6 4 7 -20 30 -53 39 -58 52 -90 31 -77 -11 7 -2 -23 12
-42 6 -8 4 -11 -7 -9 -9 1 -33 22 -53 45 -27 31 -42 41 -55 36 -13 -6 -15 -11
-6 -21 6 -7 8 -18 4 -24 -3 -5 -3 -20 0 -31 5 -13 10 -17 14 -11 13 21 68 -23
73 -57 5 -34 -10 -55 -30 -42 -8 4 -25 6 -38 3 l-25 -5 33 -29 c31 -28 31 -29
4 -13 -18 11 -31 14 -38 7 -12 -12 0 -55 13 -47 5 4 9 3 10 -2 0 -4 3 -17 6
-28 3 -11 7 -40 10 -64 4 -33 2 -42 -7 -36 -10 6 -11 0 -8 -25 3 -20 0 -34 -8
-37 -9 -3 -10 -11 -3 -29 7 -19 6 -23 -4 -17 -19 12 -39 13 -56 3 -10 -6 -11
-10 -3 -10 6 0 12 -8 12 -17 0 -15 -2 -16 -10 -3 -8 12 -10 10 -10 -8 0 -14
-4 -20 -10 -17 -6 4 -18 4 -27 1 -14 -6 -13 -10 8 -33 13 -14 18 -23 12 -19
-7 4 -13 3 -13 -1 0 -5 6 -15 13 -23 6 -8 1 -6 -12 5 l-24 20 11 -22 c7 -12
17 -24 24 -26 7 -3 4 -5 -7 -4 -11 2 -27 7 -35 12 -12 7 -13 6 -3 -6 6 -8 17
-28 22 -44 10 -26 9 -28 -3 -12 -14 18 -36 23 -36 8 0 -6 5 -13 10 -16 16 -10
0 -27 -18 -20 -20 7 -34 -15 -20 -32 6 -7 8 -13 4 -13 -3 0 14 -24 38 -54 50
-62 89 -155 80 -192 -3 -13 -20 -57 -36 -97 l-29 -72 4 50 c4 44 4 47 -6 23
-14 -35 -20 -35 -46 -2 -12 15 -21 21 -21 14 0 -7 -13 -27 -30 -46 -29 -34
-47 -31 -35 6 5 16 3 19 -12 13 -10 -3 -28 -15 -40 -26 -13 -11 -23 -17 -23
-12 0 5 -6 0 -14 -11 -20 -26 -28 -14 -12 17 15 28 17 61 4 53 -5 -3 -13 -17
-18 -30 -5 -13 -15 -23 -22 -22 -6 2 -14 -6 -16 -17 -2 -11 -8 -24 -14 -30 -6
-7 -7 0 -2 19 5 22 4 28 -7 24 -8 -3 -14 -18 -14 -34 0 -16 -4 -35 -9 -42 -4
-7 -6 -16 -3 -19 3 -3 -3 -14 -14 -26 -10 -11 -19 -25 -19 -30 0 -15 41 25 50
47 3 11 15 21 26 22 10 1 29 6 42 9 18 6 22 3 22 -13 0 -12 -5 -24 -10 -27 -6
-4 -8 -10 -6 -14 3 -4 1 -13 -5 -21 -7 -12 -9 -11 -9 4 0 18 -1 18 -19 2 -10
-10 -21 -14 -23 -9 -3 4 -3 2 -1 -6 4 -17 -25 -51 -44 -51 -7 0 -13 -5 -13
-11 0 -5 4 -8 9 -5 5 4 7 -3 4 -13 -5 -18 -6 -18 -22 -3 -13 13 -15 24 -10 45
6 20 4 30 -5 33 -14 5 -10 54 5 54 13 0 11 47 -1 55 -7 4 -9 -3 -5 -22 5 -23
4 -25 -5 -10 -6 9 -15 15 -21 12 -12 -8 -12 2 1 25 12 23 -12 52 -38 44 -12
-4 -13 -3 -4 3 9 7 5 16 -17 35 -19 17 -31 40 -36 67 -4 23 -10 41 -15 41 -4
0 -10 16 -12 36 -3 30 -2 33 8 20 9 -13 13 -14 17 -3 6 15 -27 49 -37 40 -3
-4 -6 1 -6 10 0 10 -4 17 -10 17 -5 0 -21 12 -35 28 -20 21 -24 23 -19 7 4
-11 10 -22 13 -25 12 -10 28 -91 20 -96 -5 -3 -9 2 -9 10 0 9 -4 16 -10 16 -5
0 -10 8 -10 18 0 14 -2 14 -9 3 -5 -8 -7 -20 -4 -28 3 -7 0 -13 -6 -13 -6 0
-11 12 -11 28 0 26 -32 67 -44 55 -3 -3 2 -11 11 -18 11 -8 14 -18 8 -31 -6
-15 -9 -16 -12 -4 -5 22 -42 45 -45 28 0 -7 -2 -17 -3 -23 -2 -5 -3 -16 -4
-23 -2 -22 -31 13 -31 37 0 12 -3 21 -8 21 -4 0 -15 12 -25 28 l-18 27 6 -28
c5 -23 2 -27 -12 -25 -10 2 -23 10 -30 18 -9 11 -12 12 -13 2 0 -7 -4 -10 -10
-7 -5 3 -10 -2 -10 -12 0 -10 -4 -14 -8 -8 -12 17 -32 16 -32 -2 -1 -17 -1
-17 -11 -1 -5 10 -15 18 -20 18 -6 0 -7 -5 -4 -10 3 -6 1 -10 -4 -10 -6 0 -11
5 -11 11 0 7 -10 9 -25 7 -26 -5 -28 -2 -26 42 1 23 0 23 -8 5 -9 -18 -10 -18
-10 -2 -1 10 -5 16 -10 12 -16 -9 -23 32 -10 54 10 15 10 25 1 46 -14 31 -15
48 -3 40 6 -3 8 6 5 22 -3 16 -9 30 -15 31 -5 2 -7 8 -3 13 3 5 10 6 16 3 6
-4 29 -8 52 -9 23 -1 51 -5 64 -9 17 -6 22 -3 22 9 0 11 4 13 13 8 6 -4 38 -9
69 -9 43 -2 58 2 63 14 7 18 -16 36 -26 20 -4 -6 -13 -1 -22 13 -9 12 -24 23
-34 24 -10 0 -25 5 -32 10 -10 6 -12 4 -7 -6 4 -8 1 -6 -7 3 -9 12 -17 14 -24
7 -7 -7 -15 -5 -27 6 -14 15 -16 15 -16 1 0 -9 -5 -16 -11 -16 -6 0 -8 11 -5
28 4 17 1 35 -8 47 -18 24 -20 39 -4 29 8 -5 9 -2 5 9 -4 12 -1 17 11 17 15 0
15 2 2 11 -11 8 -12 12 -2 16 6 2 9 10 5 16 -4 7 2 5 12 -3 11 -9 16 -10 11
-2 -4 6 -3 12 3 12 6 0 14 12 17 26 5 19 9 22 15 12 6 -9 9 -2 9 20 0 30 2 32
20 22 19 -10 20 -9 15 13 -9 33 10 43 28 17 14 -21 15 -21 21 4 3 14 10 25 14
25 19 -3 33 2 28 10 -3 5 4 11 17 15 19 5 20 8 7 17 -11 8 -12 12 -2 16 6 2
12 13 12 24 0 10 5 19 11 19 5 0 7 5 4 10 -3 6 -1 10 6 10 8 0 8 4 2 13 -6 6
-9 20 -8 30 2 9 -1 17 -6 17 -5 0 -9 9 -9 20 0 11 -7 20 -15 20 -8 0 -20 -9
-27 -20 -23 -36 -48 -19 -48 31 0 17 -3 18 -20 9 -14 -7 -20 -7 -20 0 0 5 -5
10 -11 10 -5 0 -7 -4 -4 -10 3 -5 -3 -10 -13 -10 -11 0 -23 7 -26 16 -3 8 -10
12 -16 9 -5 -3 -10 -1 -10 4 0 6 -11 1 -25 -11 -26 -23 -60 -34 -49 -16 3 5 0
9 -7 7 -27 -3 -38 1 -42 19 -3 10 -5 4 -6 -12 -1 -27 -2 -28 -14 -12 -7 10
-13 32 -12 50 2 33 -10 66 -25 66 -4 0 -2 -14 7 -31 8 -16 12 -33 8 -37 -4 -4
-10 -1 -12 6 -7 19 -25 14 -19 -5 7 -23 -8 -48 -23 -39 -6 4 -11 2 -11 -5 0
-9 -4 -9 -15 1 -8 6 -19 9 -24 6 -6 -4 -17 7 -26 23 -18 35 -18 41 -4 41 5 0
7 -5 4 -10 -3 -6 0 -13 9 -16 8 -3 12 -12 9 -20 -8 -22 5 -17 18 7 6 13 7 19
1 15 -6 -3 -17 8 -26 25 -13 27 -14 30 0 25 11 -4 12 -2 6 12 -12 23 -4 50 10
31 5 -9 6 0 2 24 -4 24 -2 43 6 52 11 13 10 14 -4 9 -17 -7 -23 11 -6 21 15 9
12 27 -2 19 -7 -4 -5 2 5 13 9 11 14 23 10 26 -3 4 -1 7 6 7 7 0 9 5 6 10 -13
20 13 9 29 -12 l17 -23 -6 23 c-7 25 3 65 14 58 17 -11 32 12 25 38 -5 20 -9
24 -15 15 -4 -7 -5 -17 -2 -23 3 -5 1 -6 -5 -2 -6 4 -9 13 -6 21 4 8 -1 18
-10 21 -20 8 -21 34 -1 34 8 0 15 5 15 11 0 5 5 7 10 4 6 -3 11 0 12 7 5 45 4
69 -4 74 -4 3 -6 9 -3 14 3 5 1 20 -5 35 -6 16 -6 24 0 20 5 -3 12 6 16 20 3
14 10 25 16 25 5 0 6 5 2 12 -5 7 -2 9 9 5 11 -4 14 -2 11 7 -4 10 4 13 28 10
26 -3 29 -1 16 7 -10 5 -18 19 -18 31 0 16 3 18 13 9 10 -8 14 -7 14 4 0 8 -4
15 -9 15 -20 0 -35 27 -34 58 1 25 5 32 17 29 24 -6 17 32 -11 53 -12 9 -20
23 -18 31 3 8 1 22 -4 32 -5 9 -10 32 -12 50 -2 17 -7 40 -11 50 -4 10 -3 17
3 17 6 0 14 -16 18 -36 5 -26 14 -38 33 -46 37 -15 102 -18 94 -4 -15 27 -37
46 -54 46 -24 0 -14 26 12 33 20 5 27 27 8 27 -5 0 -7 -4 -4 -10 10 -16 -21
-12 -35 5 -10 12 -10 15 1 16 8 0 5 4 -6 8 -11 5 -22 6 -25 2 -12 -15 -49 -9
-66 11 -19 21 -19 21 6 8 l25 -13 -19 22 c-11 11 -15 21 -11 21 4 0 1 8 -7 18
-18 20 -32 80 -15 63 22 -22 26 -10 7 24 -20 36 -9 50 19 23 10 -11 11 -9 5 6
-6 16 -5 17 15 7 12 -7 25 -10 30 -7 14 9 20 57 7 53 -15 -5 -49 51 -52 88 -3
29 -3 29 12 10 16 -20 16 -20 10 2 -8 24 4 25 43 4 13 -7 21 -8 17 -3 -3 6 -1
12 6 14 8 3 3 14 -15 30 -15 14 -30 40 -33 58 l-7 32 26 -17 c30 -19 51 -12
44 17 -4 16 -3 17 9 7 11 -9 14 -7 14 12 0 32 -11 45 -37 46 -14 1 -24 -6 -28
-18 -4 -10 -10 -19 -15 -19 -10 0 -3 28 13 48 11 14 -19 55 -34 46 -5 -3 -9 0
-9 5 0 6 -9 11 -19 11 -16 0 -36 24 -33 41 0 3 -9 5 -21 5 -13 -1 -23 6 -25
17 -2 10 3 17 13 17 13 0 14 4 5 20 -15 28 -2 46 16 23 7 -10 14 -23 14 -29z
m-62 -11 c-6 -7 -5 -19 1 -32 7 -13 8 -22 1 -26 -5 -3 -10 -2 -10 4 0 6 -7 8
-15 5 -8 -4 -15 -12 -15 -19 0 -7 -7 -16 -16 -19 -22 -9 -24 -8 -18 8 3 8 1
23 -6 33 -7 11 -10 12 -7 3 4 -18 -19 -43 -42 -45 -9 0 -23 -5 -31 -10 -8 -5
-30 -11 -49 -12 -19 -1 -38 -8 -42 -15 -5 -7 -9 -8 -9 -3 -1 6 -5 0 -10 -13
l-10 -22 -20 20 c-25 25 -26 34 -2 26 14 -6 14 -4 -3 14 -12 11 -31 22 -43 25
-32 6 -42 14 -42 33 -1 12 -5 10 -15 -8 -8 -14 -14 -21 -15 -16 0 5 -10 1 -22
-10 -12 -10 -18 -13 -14 -6 7 11 -4 16 -31 13 -6 -1 -15 4 -19 10 -5 9 -2 10
9 6 10 -3 17 -2 17 2 0 5 9 7 19 4 16 -4 19 -1 14 15 -4 18 0 20 41 17 25 -2
48 1 52 6 3 5 10 7 15 4 5 -4 9 -1 9 5 0 6 5 8 12 4 17 -11 48 -12 42 -2 -3 4
0 9 5 9 12 2 26 5 39 9 4 1 12 1 17 0 45 -12 95 -15 95 -7 0 6 7 2 16 -9 12
-15 17 -16 21 -5 5 11 7 11 14 0 6 -9 9 -10 9 -2 0 7 10 10 25 7 22 -4 25 -1
26 23 0 24 1 25 8 8 5 -11 4 -25 -1 -32z m635 -66 c15 -10 27 -15 27 -13 0 3
11 -6 25 -20 14 -14 25 -31 25 -38 0 -19 -75 -37 -91 -22 -9 8 -10 8 -5 -1 3
-6 2 -14 -4 -18 -14 -9 -13 18 2 33 9 9 7 13 -5 18 -9 3 -15 10 -12 14 3 5 1
11 -5 15 -11 7 -14 48 -3 58 4 4 9 4 12 -1 3 -4 18 -15 34 -25z m-571 -69 c-8
-8 -9 -4 -5 13 4 13 8 18 11 10 2 -7 -1 -18 -6 -23z m-484 -4 c15 -15 13 -16
-17 -9 -31 7 -33 6 -26 -16 7 -23 6 -23 -8 -5 -27 36 18 62 51 30z m547 6 c3
-5 1 -10 -4 -10 -6 0 -11 5 -11 10 0 6 2 10 4 10 3 0 8 -4 11 -10z m-245 -26
c0 -8 -4 -12 -10 -9 -5 3 -10 10 -10 16 0 5 5 9 10 9 6 0 10 -7 10 -16z m-431
-6 c9 -8 11 -8 8 -2 -5 8 2 11 16 10 28 -1 31 -19 5 -35 -10 -6 -18 -7 -18 -2
0 5 -9 13 -20 16 -11 3 -20 11 -20 16 0 13 14 11 29 -3z m354 -48 c7 0 6 -4
-3 -10 -21 -14 -27 -12 -34 6 -5 12 -2 15 10 10 8 -3 21 -6 27 -6z m327 -65
c0 -8 -61 2 -70 11 -17 17 -1 46 21 39 12 -4 19 -1 19 7 1 10 30 -46 30 -57z
m-142 20 c-3 -3 -9 2 -12 12 -6 14 -5 15 5 6 7 -7 10 -15 7 -18z m-758 -11 c0
-8 -4 -13 -9 -10 -5 4 -21 2 -35 -4 -16 -6 -27 -6 -31 1 -4 5 -11 6 -17 3 -6
-4 -9 -1 -6 7 5 16 48 22 48 7 0 -5 7 -2 16 6 17 18 34 13 34 -10z m520 -5 c0
-11 -4 -17 -10 -14 -5 3 -10 15 -10 26 0 11 5 17 10 14 6 -3 10 -15 10 -26z
m1117 -14 c-3 -7 -1 -16 6 -18 8 -3 4 -11 -10 -22 -13 -9 -23 -23 -23 -32 0
-10 -6 -14 -20 -10 -11 3 -18 1 -14 -4 3 -5 0 -9 -5 -9 -6 0 -11 2 -11 4 0 2
-3 11 -6 20 -4 10 -1 16 7 16 8 0 21 4 29 10 12 7 10 12 -12 30 -29 22 -28 51
2 43 10 -3 21 0 25 6 9 16 39 -15 32 -34z m-1553 5 c-6 -6 -10 -2 -11 12 -2
16 1 18 10 9 7 -7 8 -14 1 -21z m1223 -2 c-3 -8 -6 -5 -6 6 -1 11 2 17 5 13 3
-3 4 -12 1 -19z m-534 -3 c4 -8 2 -17 -3 -20 -6 -4 -10 3 -10 14 0 25 6 27 13
6z m-1031 -30 c3 3 10 -1 16 -8 9 -11 8 -13 -7 -12 -22 1 -51 23 -51 38 0 5 8
3 18 -6 10 -10 21 -15 24 -12z m975 -25 c5 -27 16 -32 40 -17 16 10 28 -30 13
-48 -17 -20 -51 -14 -62 11 -6 13 -16 20 -23 18 -19 -7 -36 19 -24 36 8 11 12
12 16 3 2 -7 10 -13 16 -13 8 0 7 4 -1 12 -17 17 -15 39 4 31 8 -3 17 -18 21
-33z m1175 2 c-7 -2 -12 -11 -12 -19 0 -12 -3 -13 -14 -4 -7 6 -21 8 -31 5
-15 -6 -15 -4 -4 14 7 12 16 17 19 12 4 -6 14 -4 26 4 13 10 20 11 23 3 2 -6
-1 -13 -7 -15z m-1274 -29 c7 -7 10 -13 6 -13 -4 0 -1 -6 8 -12 17 -15 33 -53
18 -43 -6 3 -10 2 -10 -4 0 -5 -3 -17 -7 -27 -5 -13 -3 -16 10 -11 19 7 20 6
11 -17 -8 -22 -34 -2 -34 26 0 11 -5 18 -12 16 -7 -3 -22 6 -35 20 -21 23 -21
42 0 70 6 8 6 12 -2 12 -6 0 -11 -5 -11 -12 0 -6 -2 -9 -5 -6 -3 3 -3 12 1 21
5 14 10 15 27 5 12 -6 28 -17 35 -25z m-183 -31 c-8 -8 -25 10 -25 26 0 13 2
13 14 -4 8 -10 13 -21 11 -22z m101 24 c18 -19 18 -23 -4 -35 -13 -7 -19 -6
-19 2 0 7 -4 20 -8 30 -9 21 10 23 31 3z m-136 -38 c0 -5 -4 -7 -9 -4 -5 3
-11 0 -14 -8 -7 -18 -62 -15 -62 4 0 10 8 14 23 13 13 -2 21 1 17 7 -3 6 -3
15 0 21 7 11 45 -17 45 -33z m1579 11 c-7 -14 -14 -18 -21 -11 -13 13 -2 32
18 32 12 0 13 -4 3 -21z m-1198 -214 c1 -6 -2 -29 -6 -53 -6 -32 -13 -44 -30
-48 -17 -4 -21 -11 -17 -30 4 -20 0 -24 -22 -24 -39 0 -86 -32 -76 -51 7 -11
5 -16 -5 -16 -8 0 -15 4 -15 9 0 4 -8 8 -17 8 -15 0 -14 2 3 15 17 13 17 14 2
15 -9 0 -17 8 -16 18 0 9 -5 31 -11 47 l-10 30 1 -40 c2 -87 0 -95 -27 -95
-14 0 -25 2 -25 4 0 2 -3 12 -6 21 -5 11 -2 16 7 14 20 -3 50 12 43 22 -3 5
-7 19 -9 30 -6 30 -14 36 -26 19 -7 -11 -8 -7 -3 13 5 21 3 27 -10 27 -9 0
-16 8 -16 21 0 11 -4 18 -8 15 -5 -3 -4 17 2 44 5 27 13 47 18 44 4 -3 8 0 8
6 0 6 4 9 10 5 5 -3 7 -12 4 -19 -9 -23 14 -28 28 -6 7 11 16 20 21 20 4 0 6
-4 2 -10 -10 -16 7 -60 23 -60 12 0 13 -3 4 -12 -7 -7 -12 -19 -12 -27 0 -11
4 -10 20 4 18 16 20 16 20 2 0 -10 -4 -17 -9 -17 -17 0 -19 -41 -4 -70 15 -31
30 -42 19 -15 -3 8 -1 15 3 15 5 0 12 -6 14 -12 3 -7 6 -3 6 10 1 24 16 30 24
10 4 -9 6 -10 6 -1 1 6 -6 19 -15 27 -16 16 -11 56 7 56 5 0 9 8 9 18 0 14 2
15 10 2 8 -13 10 -12 10 3 0 11 4 15 12 11 8 -5 9 0 5 17 -4 13 -7 29 -7 35 0
16 -40 55 -51 49 -10 -7 -12 6 -3 28 5 13 9 12 26 -5 l21 -21 20 39 21 39 12
-85 c7 -47 14 -90 15 -95z m-443 114 c-3 -9 -12 0 -22 21 l-18 35 22 -21 c12
-12 20 -28 18 -35z m18 24 c-7 -7 -26 7 -26 19 0 6 6 6 15 -2 9 -7 13 -15 11
-17z m-58 -48 c-3 -3 -9 2 -12 12 -6 14 -5 15 5 6 7 -7 10 -15 7 -18z m120
-27 c15 17 20 18 35 7 21 -15 22 -32 2 -51 -15 -16 -19 -11 -16 26 0 10 -1 11
-5 3 -3 -7 -12 -13 -20 -13 -8 0 -14 -7 -14 -16 0 -11 -5 -14 -16 -10 -13 5
-15 2 -11 -16 6 -22 6 -22 -13 2 -11 14 -20 30 -20 35 0 6 -5 3 -10 -5 -8 -12
-10 -11 -8 5 2 11 -1 21 -7 23 -5 1 -11 -9 -13 -23 -2 -14 1 -25 6 -25 6 0 13
-8 16 -17 6 -15 4 -15 -14 2 -11 10 -20 25 -20 33 0 9 -8 24 -17 35 -17 19
-17 20 4 8 13 -7 24 -7 28 -1 3 5 13 6 23 3 15 -6 16 -5 2 13 -14 18 -14 18 2
5 10 -7 16 -16 14 -20 -3 -4 -1 -13 5 -21 7 -13 9 -13 10 0 1 8 3 20 4 25 2 6
3 17 4 25 1 8 8 0 16 -19 15 -34 15 -34 33 -13z m-123 -77 c13 -27 21 -51 18
-55 -4 -3 -1 -6 5 -6 7 0 12 -7 12 -16 0 -10 -4 -12 -12 -7 -7 4 -22 8 -33 8
-13 0 -20 6 -19 17 1 10 -2 15 -7 12 -13 -8 -11 -58 3 -72 14 -14 19 -42 7
-42 -4 0 -14 10 -20 22 -6 12 -22 32 -35 45 -27 27 -31 45 -9 37 11 -5 15 2
15 26 l0 33 23 -19 c12 -10 17 -12 10 -5 -6 7 -9 20 -6 27 3 8 -1 22 -8 32
-13 16 -13 16 5 2 18 -14 19 -13 13 3 -13 36 14 5 38 -42z m364 -28 c1 -7 -3
-13 -7 -13 -4 0 -8 15 -9 33 -2 26 0 28 7 12 5 -11 9 -26 9 -32z m-2124 -1
c12 1 10 4 96 -192 13 -30 27 -56 32 -58 4 -2 7 -9 7 -15 0 -7 11 -12 25 -12
14 0 25 3 25 6 0 13 70 79 84 79 8 0 17 4 20 9 7 10 84 -5 102 -20 7 -5 17 -8
22 -7 17 5 67 -32 84 -62 13 -23 13 -32 2 -59 -7 -17 -17 -31 -21 -32 -4 0
-15 -2 -23 -5 -89 -24 -173 -32 -224 -21 -28 5 -78 68 -72 90 4 18 4 18 -15 1
-10 -9 -19 -21 -19 -25 0 -4 -10 -29 -22 -56 -12 -26 -21 -51 -20 -55 1 -5 -3
-8 -9 -8 -6 0 -20 -11 -31 -25 -11 -14 -30 -25 -43 -25 -47 0 -102 78 -103
145 0 11 -10 52 -21 90 -41 138 -32 248 22 259 51 11 63 12 77 5 8 -4 19 -7
25 -7z m1948 -27 c4 -8 2 -17 -3 -20 -6 -4 -10 3 -10 14 0 25 6 27 13 6z
m-173 -46 c0 -6 -4 -7 -10 -4 -5 3 -10 11 -10 16 0 6 5 7 10 4 6 -3 10 -11 10
-16z m-150 -49 c0 -6 -7 -6 -20 2 -10 7 -17 14 -15 16 2 3 -1 14 -6 26 -9 17
-6 15 15 -6 14 -15 26 -32 26 -38z m335 40 c3 -6 -1 -7 -9 -4 -18 7 -21 14 -7
14 6 0 13 -4 16 -10z m277 -57 c7 -33 -3 -51 -25 -47 -12 2 -17 2 -10 -2 7 -3
11 -11 9 -17 -1 -7 -1 -9 1 -4 9 15 33 6 33 -14 0 -11 5 -17 10 -14 6 3 10 -1
10 -9 0 -20 -27 -10 -33 12 -3 10 -5 0 -6 -20 -1 -29 3 -38 15 -38 11 0 14 -6
10 -17 -6 -17 -5 -17 8 0 7 9 16 17 19 17 6 0 -6 -54 -22 -93 -14 -35 -41 -65
-41 -45 -1 8 -6 6 -15 -6 -8 -11 -15 -15 -15 -10 0 15 45 55 53 47 4 -3 7 -2
7 4 0 6 -7 13 -14 16 -11 5 -13 13 -6 36 8 29 5 41 -11 41 -5 0 -6 -7 -3 -15
4 -10 0 -15 -15 -15 -12 0 -20 -3 -20 -7 7 -46 -19 -90 -37 -61 -5 7 -2 8 6 3
10 -6 12 -4 7 8 -3 9 -3 19 2 21 4 3 6 19 3 37 -4 24 -2 30 8 24 9 -5 11 -4 6
3 -5 9 -14 7 -32 -5 -14 -9 -24 -12 -22 -6 2 5 -10 21 -26 36 -16 15 -25 27
-21 27 4 0 3 6 -3 13 -8 10 -5 13 14 15 13 1 24 -3 24 -8 0 -5 -8 -6 -17 -3
-14 5 -13 1 5 -25 25 -35 42 -48 42 -34 0 6 -7 12 -15 16 -8 3 -15 10 -15 16
0 6 5 8 10 5 6 -3 10 3 10 15 0 13 -9 24 -25 30 -32 12 -32 24 0 18 13 -3 26
0 28 6 2 6 3 3 2 -6 -4 -24 24 -46 34 -29 5 7 12 12 17 12 5 0 9 5 10 12 1 22
26 77 34 77 5 0 10 -8 12 -17z m208 -1 c0 -16 -32 -12 -37 5 -3 7 4 11 16 10
12 -1 21 -7 21 -15z m-850 -7 c14 -16 10 -18 -14 -9 -9 3 -16 10 -16 15 0 14
16 11 30 -6z m765 -55 c3 -5 1 -10 -5 -10 -7 0 -9 -8 -5 -21 5 -14 3 -19 -4
-15 -6 4 -10 18 -9 31 2 26 12 32 23 15z m-380 -20 c3 -5 1 -10 -4 -10 -6 0
-11 5 -11 10 0 6 2 10 4 10 3 0 8 -4 11 -10z m380 -80 c3 -6 -1 -7 -9 -4 -18
7 -21 14 -7 14 6 0 13 -4 16 -10z m-261 -16 c6 -14 4 -15 -10 -4 -13 12 -17
11 -25 -1 -5 -8 -9 -9 -9 -3 0 27 34 33 44 8z m1564 -22 c2 -7 -1 -12 -7 -12
-6 0 -11 5 -11 10 0 6 -7 10 -15 10 -8 0 -15 4 -15 10 0 13 43 -4 48 -18z
m-1398 -116 c0 -2 -8 -10 -17 -17 -16 -13 -17 -12 -4 4 13 16 21 21 21 13z
m-41 -23 c-3 -19 2 -34 9 -29 4 2 8 -3 8 -13 0 -13 -7 -17 -26 -16 -26 2 -50
-11 -50 -26 0 -5 11 -2 25 7 29 19 31 13 9 -21 -15 -23 -15 -25 0 -25 10 0 14
-4 11 -10 -3 -5 3 -10 14 -10 28 0 37 -21 15 -34 -23 -13 -124 -17 -124 -5 0
5 -6 8 -12 7 -13 -3 -18 37 -8 57 3 6 5 19 5 30 0 14 6 19 19 17 14 -3 17 1
12 13 -4 12 -2 15 12 11 12 -4 28 4 47 24 30 31 36 35 34 23z m61 -333 c0 -5
-5 -10 -11 -10 -5 0 -7 5 -4 10 3 6 8 10 11 10 2 0 4 -4 4 -10z m-1507 -225
c-3 -9 -8 -14 -10 -11 -3 3 -2 9 2 15 9 16 15 13 8 -4z m2873 -30 c13 -13 13
-15 1 -15 -8 0 -17 7 -21 15 -3 8 -3 15 0 15 3 0 12 -7 20 -15z m-1324 -129
c-9 -18 -11 -16 -11 19 0 33 1 37 10 21 8 -12 8 -25 1 -40z m-1602 4 c0 -5 -4
-10 -10 -10 -5 0 -10 5 -10 10 0 6 5 10 10 10 6 0 10 -4 10 -10z m2918 -28
c13 -20 13 -22 -2 -16 -9 3 -16 12 -16 19 0 7 -5 16 -10 18 -6 3 -5 4 1 3 7
-1 19 -12 27 -24z m-1253 8 c3 -5 1 -10 -4 -10 -6 0 -11 5 -11 10 0 6 2 10 4
10 3 0 8 -4 11 -10z m249 -52 c-14 -6 -28 -7 -38 -1 -12 7 -7 9 21 10 33 1 35
-1 17 -9z m26 -34 c0 -8 -19 -13 -24 -6 -3 5 1 9 9 9 8 0 15 -2 15 -3z m-2410
-69 c11 -13 10 -14 -4 -9 -9 3 -16 10 -16 15 0 13 6 11 20 -6z m-5 -45 c3 -5
1 -10 -4 -10 -6 0 -11 5 -11 10 0 6 2 10 4 10 3 0 8 -4 11 -10z m2262 -15 c6
-14 9 -25 5 -25 -9 0 -42 32 -42 42 0 18 26 6 37 -17z m-317 -149 c0 -3 -4 -8
-10 -11 -5 -3 -10 -1 -10 4 0 6 5 11 10 11 6 0 10 -2 10 -4z m86 -15 c4 0 -1
-11 -9 -24 -18 -28 -5 -60 19 -50 14 5 15 1 9 -28 -9 -41 -7 -39 -38 -44 -23
-5 -25 -3 -21 33 2 22 1 30 -4 19 -4 -10 -21 -24 -37 -33 -29 -15 -29 -15 -11
5 10 11 23 18 27 15 5 -3 9 1 9 8 0 8 5 19 12 26 6 6 12 23 13 37 0 21 -3 24
-20 19 -11 -3 -24 -10 -29 -14 -5 -5 -15 -6 -23 -3 -23 9 29 38 66 37 17 -1
34 -2 37 -3z m35 -36 c8 19 9 19 6 1 -3 -25 -27 -33 -27 -9 0 15 -2 16 -10 3
-5 -8 -10 -10 -10 -4 0 5 6 16 13 23 10 10 13 8 16 -11 3 -22 4 -22 12 -3z
m-106 -35 c-15 -16 -32 -27 -37 -24 -4 3 -8 -2 -8 -10 0 -10 -6 -13 -15 -10
-18 7 -10 23 19 34 20 9 20 9 1 9 -12 1 -27 -5 -34 -11 -10 -11 -11 -10 -6 5
4 10 2 17 -5 17 -6 0 -8 5 -4 11 4 8 9 8 17 0 15 -15 49 -14 73 3 30 23 30 9
-1 -24z m255 -35 c0 -5 -5 -3 -10 5 -5 8 -10 20 -10 25 0 6 5 3 10 -5 5 -8 10
-19 10 -25z m-505 15 c-3 -5 -11 -10 -16 -10 -6 0 -7 5 -4 10 3 6 11 10 16 10
6 0 7 -4 4 -10z m495 -45 c0 -5 -5 -3 -10 5 -5 8 -10 20 -10 25 0 6 5 3 10 -5
5 -8 10 -19 10 -25z m-390 10 c-7 -9 -15 -13 -17 -11 -7 7 7 26 19 26 6 0 6
-6 -2 -15z m-139 -62 c-12 -20 -14 -14 -5 12 4 9 9 14 11 11 3 -2 0 -13 -6
-23z m1689 -80 c0 -3 -22 14 -50 37 -27 23 -50 44 -50 47 0 3 23 -14 50 -37
28 -23 50 -44 50 -47z m-1560 62 c0 -8 -4 -15 -10 -15 -5 0 -7 7 -4 15 4 8 8
15 10 15 2 0 4 -7 4 -15z m260 -37 c0 -17 3 -19 9 -9 7 11 12 10 28 -5 21 -21
43 -67 43 -89 0 -21 -17 -19 -24 3 -2 9 -2 -5 1 -33 5 -44 4 -48 -9 -34 -8 8
-17 21 -21 29 -3 8 -6 -7 -7 -35 -1 -36 -4 -44 -9 -30 -5 11 -6 27 -4 35 2 8
-2 5 -8 -7 -7 -13 -16 -23 -21 -23 -5 0 -2 13 7 30 15 28 12 85 -4 76 -4 -3
-12 3 -18 12 -7 13 -7 21 3 30 11 10 14 10 14 0 0 -8 4 -7 10 4 7 11 7 25 0
42 -6 17 -6 26 0 26 6 0 10 -10 10 -22z m-63 -40 c-3 -8 -6 -5 -6 6 -1 11 2
17 5 13 3 -3 4 -12 1 -19z m1261 -63 c-3 -3 -9 2 -12 12 -6 14 -5 15 5 6 7 -7
10 -15 7 -18z m-1221 -37 c-3 -8 -6 -5 -6 6 -1 11 2 17 5 13 3 -3 4 -12 1 -19z
m-37 8 c0 -2 -8 -10 -17 -17 -16 -13 -17 -12 -4 4 13 16 21 21 21 13z m20 -59
c0 -8 -7 -14 -15 -14 -11 0 -12 4 -4 14 6 7 13 13 15 13 2 0 4 -6 4 -13z m107
-29 c-3 -8 -6 -5 -6 6 -1 11 2 17 5 13 3 -3 4 -12 1 -19z m-191 -71 c-8 -51
-37 -76 -58 -49 -11 15 -11 16 3 4 14 -10 17 -9 22 8 3 11 1 20 -5 20 -12 0
-2 50 13 65 7 7 8 4 4 -7 -4 -11 -2 -18 4 -18 6 0 11 10 12 23 0 12 3 16 6 9
3 -7 2 -32 -1 -55z m34 23 c0 -5 -5 -10 -11 -10 -5 0 -7 5 -4 10 3 6 8 10 11
10 2 0 4 -4 4 -10z m277 -12 c-3 -8 -6 -5 -6 6 -1 11 2 17 5 13 3 -3 4 -12 1
-19z m-60 -10 c-3 -8 -6 -5 -6 6 -1 11 2 17 5 13 3 -3 4 -12 1 -19z m466 -1
c3 -8 1 -20 -4 -28 -6 -10 -9 -7 -9 14 0 29 5 35 13 14z m-296 -19 c-3 -8 -6
-5 -6 6 -1 11 2 17 5 13 3 -3 4 -12 1 -19z m70 -25 c-3 -10 -5 -4 -5 12 0 17
2 24 5 18 2 -7 2 -21 0 -30z m724 -180 c-1 -5 -4 -8 -8 -8 -21 -2 -53 -17 -53
-26 0 -13 9 -11 27 6 18 18 31 12 15 -7 -10 -13 -15 -39 -13 -72 1 -18 3 -18
27 5 l27 24 -26 -45 c-14 -25 -25 -56 -25 -70 1 -66 -117 -241 -161 -239 -10
0 -12 2 -3 6 6 2 12 9 12 15 0 5 -11 0 -25 -11 -15 -11 -35 -18 -46 -16 -11 2
-53 -12 -93 -31 -77 -35 -122 -38 -147 -8 -6 8 -18 14 -25 14 -17 0 -18 16 -3
26 6 3 9 19 7 35 -4 23 -2 26 9 17 11 -9 12 -6 3 16 -7 19 -7 25 0 21 17 -11
-1 48 -19 63 -9 8 -11 11 -4 8 17 -9 28 34 12 45 -11 7 -10 9 3 9 10 0 19 11
23 30 7 34 40 58 49 37 3 -6 3 -1 0 12 -4 16 -3 21 5 17 6 -4 11 -3 11 2 0 6
-7 12 -15 16 -8 3 -15 10 -15 16 0 6 8 4 17 -6 11 -11 18 -13 21 -5 6 19 22
12 22 -10 0 -11 -4 -17 -10 -14 -5 3 -7 0 -4 -8 4 -10 16 -13 39 -10 l33 4
-16 -45 c-10 -26 -25 -49 -34 -52 -10 -3 -18 -10 -18 -16 0 -6 -7 -19 -16 -29
-12 -14 -22 -16 -42 -9 -27 10 -27 9 -5 -6 12 -9 19 -22 16 -30 -8 -20 -21
-17 -28 7 -4 11 -9 19 -11 16 -2 -2 5 -25 17 -52 12 -26 24 -44 28 -39 3 5 15
14 25 20 11 6 29 28 40 50 11 21 24 41 28 42 4 2 8 13 8 23 0 20 1 20 33 2 17
-10 34 -22 36 -26 1 -5 12 0 22 9 11 9 29 22 41 28 35 18 70 77 65 109 -2 18
1 31 10 34 9 4 10 9 4 17 -6 7 -6 17 -1 26 7 10 10 11 10 3 0 -7 5 -13 10 -13
6 0 10 7 10 16 0 8 4 13 9 9 12 -7 33 29 23 40 -4 5 -1 5 6 1 6 -4 12 -3 12 1
0 5 10 13 23 18 21 10 29 6 28 -12z m-1104 -9 c-3 -3 -12 -4 -19 -1 -8 3 -5 6
6 6 11 1 17 -2 13 -5z m971 -34 c-7 -10 -14 -17 -17 -15 -4 4 18 35 25 35 2 0
-1 -9 -8 -20z m-251 -22 c-3 -8 -6 -5 -6 6 -1 11 2 17 5 13 3 -3 4 -12 1 -19z
m-1220 -10 c-3 -8 -6 -5 -6 6 -1 11 2 17 5 13 3 -3 4 -12 1 -19z m-3 -66 c-8
-2 -11 -8 -8 -14 4 -7 2 -8 -4 -4 -16 10 -15 43 1 49 6 2 15 -3 18 -12 4 -9 1
-17 -7 -19z m-159 -52 c-3 -5 -12 -10 -18 -10 -7 0 -6 4 3 10 19 12 23 12 15
0z m8 -37 c-7 -2 -13 -12 -13 -20 0 -9 -3 -14 -6 -10 -10 10 4 37 18 36 10 0
10 -2 1 -6z m-106 -105 c-3 -8 -6 -5 -6 6 -1 11 2 17 5 13 3 -3 4 -12 1 -19z
m102 -30 c-11 -21 -11 -22 4 -9 15 12 17 10 17 -19 0 -19 -8 -43 -17 -54 -17
-18 -16 -18 13 2 17 12 34 19 38 15 5 -6 10 11 7 29 0 4 12 4 27 1 15 -3 33
-6 40 -6 20 -1 14 -12 -19 -36 -30 -23 -31 -23 -24 -2 3 12 3 21 -2 21 -5 0
-9 -10 -10 -22 -1 -11 -8 -25 -15 -30 -10 -8 -10 -11 0 -15 23 -9 42 -34 42
-54 0 -11 -4 -17 -10 -14 -5 3 -10 -1 -10 -10 0 -9 4 -14 9 -11 11 7 2 -73
-11 -94 -7 -11 -8 -9 -5 8 6 27 -11 19 -23 -12 l-9 -21 0 22 c-1 12 -5 25 -11
28 -5 3 -10 12 -10 18 0 7 4 6 11 -3 9 -12 10 -12 5 3 -3 10 -6 25 -6 33 0 9
-5 12 -10 9 -6 -4 -8 -11 -4 -16 3 -5 0 -8 -8 -7 -7 2 -12 -3 -10 -9 1 -7 -3
-13 -8 -13 -16 0 -12 52 6 64 8 6 17 31 20 54 5 42 -2 52 -23 31 -21 -21 -23
8 -3 34 24 30 25 37 6 37 -8 0 -17 -8 -19 -17 -3 -10 -4 -1 -2 19 1 21 8 44
15 53 18 22 23 18 9 -7z m-296 -23 c-3 -9 -8 -14 -10 -11 -3 3 -2 9 2 15 9 16
15 13 8 -4z m932 -13 c-3 -3 -11 0 -18 7 -9 10 -8 11 6 5 10 -3 15 -9 12 -12z
m-1769 -89 c-3 -4 -6 -1 -6 5 0 6 -7 9 -15 6 -8 -4 -15 -12 -15 -19 0 -19 -17
-28 -26 -14 -4 8 -3 9 4 5 7 -4 12 -1 12 9 0 10 -5 13 -12 9 -7 -4 -8 -3 -4 4
4 7 16 12 27 12 10 0 19 6 19 13 0 6 5 4 11 -6 6 -10 8 -21 5 -24z m512 5
c-24 -24 -15 -38 10 -15 12 11 22 13 32 7 11 -7 12 -10 2 -10 -7 0 -10 -5 -7
-10 3 -6 -1 -17 -9 -26 -9 -8 -16 -11 -16 -5 0 6 -11 13 -25 17 -30 7 -29 3
-10 42 10 19 21 29 30 26 10 -4 9 -10 -7 -26z m757 23 c-9 -8 -36 -10 -30 -2
2 4 11 8 20 8 8 0 13 -3 10 -6z m-1392 -58 c-3 -7 0 -13 6 -13 6 0 11 5 11 10
0 6 8 10 17 10 15 0 14 -2 -4 -15 -23 -16 -53 -11 -53 9 0 7 6 13 14 13 8 0
12 -6 9 -14z m-133 -11 c0 -4 -10 -13 -22 -21 -23 -14 -23 -14 -4 8 20 22 26
25 26 13z m42 -24 c-7 -7 -12 -8 -12 -2 0 6 3 14 7 17 3 4 9 5 12 2 2 -3 -1
-11 -7 -17z m355 -7 c-5 -23 -3 -29 10 -27 9 2 20 11 24 22 6 16 8 15 8 -8 1
-15 -3 -30 -9 -33 -19 -11 -10 -22 14 -18 22 5 23 2 19 -31 -3 -34 8 -48 22
-26 3 6 10 10 15 10 14 0 -28 -77 -45 -84 -23 -8 -25 -8 -22 7 1 6 -6 11 -16
11 -14 -2 -15 1 -6 12 9 11 8 14 -2 14 -10 0 -10 3 -1 12 16 16 16 42 0 32 -8
-5 -9 -2 -5 9 3 10 2 17 -4 17 -6 0 -7 5 -3 11 5 8 1 8 -14 0 -17 -9 -20 -8
-18 14 0 14 5 25 9 25 5 0 5 10 2 21 -5 14 -2 25 6 30 21 13 22 11 16 -20z
m663 25 c0 -3 -4 -8 -10 -11 -5 -3 -10 -1 -10 4 0 6 5 11 10 11 6 0 10 -2 10
-4z m320 -11 c-7 -9 -15 -13 -19 -10 -3 3 1 10 9 15 21 14 24 12 10 -5z m1440
5 c0 -5 -2 -10 -4 -10 -3 0 -8 5 -11 10 -3 6 -1 10 4 10 6 0 11 -4 11 -10z
m-1620 -36 c0 -8 -4 -12 -10 -9 -5 3 -10 13 -10 21 0 8 5 12 10 9 6 -3 10 -13
10 -21z m107 6 c2 -23 -12 -27 -20 -6 -3 8 -1 17 6 20 7 2 12 5 12 5 1 1 1 -8
2 -19z m1492 -2 c13 -22 13 -22 -5 -7 -10 9 -26 19 -34 22 -11 4 -9 6 5 6 11
1 26 -9 34 -21z m-2662 6 c-3 -3 -12 -4 -19 -1 -8 3 -5 6 6 6 11 1 17 -2 13
-5z m107 -25 c-13 -15 -19 -16 -25 -7 -10 16 9 38 27 31 13 -5 12 -8 -2 -24z
m921 -9 c-3 -5 -2 -10 4 -10 6 0 8 -7 5 -15 -4 -8 -1 -15 5 -15 6 0 11 -7 11
-15 0 -13 -4 -14 -20 -5 -11 6 -18 16 -14 21 3 6 -3 13 -15 16 -24 6 -26 15
-11 44 10 17 13 18 26 4 8 -8 12 -19 9 -25z m85 30 c0 -5 -5 -10 -11 -10 -5 0
-7 5 -4 10 3 6 8 10 11 10 2 0 4 -4 4 -10z m-798 -32 c-8 -8 -9 -4 -5 13 4 13
8 18 11 10 2 -7 -1 -18 -6 -23z m372 8 c-3 -9 -10 -16 -15 -16 -5 0 -4 9 3 20
14 22 21 20 12 -4z m-836 -4 c2 -7 -7 -12 -23 -12 -22 0 -24 2 -13 15 15 16
30 15 36 -3z m1272 2 c0 -8 -19 -13 -24 -6 -3 5 1 9 9 9 8 0 15 -2 15 -3z
m445 -22 c2 -30 -12 -28 -18 3 -2 15 0 24 6 22 6 -2 11 -13 12 -25z m-1675 14
c0 -3 -4 -8 -10 -11 -5 -3 -10 -1 -10 4 0 6 5 11 10 11 6 0 10 -2 10 -4z m470
-10 c0 -8 -4 -17 -8 -20 -4 -2 -8 4 -8 15 0 10 4 19 8 19 4 0 8 -6 8 -14z
m-410 -6 c0 -5 -5 -10 -11 -10 -5 0 -7 5 -4 10 3 6 8 10 11 10 2 0 4 -4 4 -10z
m25 -44 c-2 -19 1 -23 16 -19 24 7 25 -13 2 -21 -18 -5 -53 -26 -63 -36 -3 -3
-14 -12 -25 -20 -15 -11 -14 -7 5 15 14 17 28 31 33 33 16 8 -6 22 -36 23
l-32 1 33 14 c31 14 47 32 17 20 -8 -3 -15 -1 -15 4 0 9 38 18 56 12 6 -1 10
-14 9 -26z m385 -75 c-5 -11 -15 -23 -22 -27 -7 -5 -8 -2 -3 7 21 37 44 55 25
20z m21 -37 c-17 -21 -21 -23 -21 -9 0 10 8 24 17 31 26 19 28 9 4 -22z m9
-69 c-7 -8 -17 -15 -23 -15 -6 0 -2 7 9 15 25 19 30 19 14 0z m610 -35 c18
-12 2 -12 -25 0 -13 6 -15 9 -5 9 8 0 22 -4 30 -9z m-641 -26 c-6 -8 -17 -14
-23 -13 -7 0 -6 2 2 6 6 2 12 11 12 19 0 9 5 12 10 9 8 -5 7 -11 -1 -21z m513
2 c4 3 5 -3 5 -13 -2 -18 -15 -33 -31 -33 -4 0 -6 7 -3 14 4 10 1 13 -9 9 -12
-5 -13 -1 -2 22 10 23 14 25 23 11 7 -9 14 -13 17 -10z m685 -18 c-3 -8 -6 -5
-6 6 -1 11 2 17 5 13 3 -3 4 -12 1 -19z m-1137 2 c0 -5 -9 -14 -20 -20 -19
-10 -20 -10 -8 9 13 22 28 28 28 11z m493 -25 c-5 -13 -23 -22 -23 -11 0 15
14 35 21 31 4 -3 6 -12 2 -20z m-674 -37 c-7 -13 -14 -18 -16 -11 -3 7 2 19 9
27 18 20 22 12 7 -16z m-9 -42 c0 -2 -7 -7 -16 -10 -8 -3 -12 -2 -9 4 6 10 25
14 25 6z m70 0 c0 -2 -9 -6 -20 -9 -11 -3 -18 -1 -14 4 5 9 34 13 34 5z"/>
<path d="M2866 3902 c-2 -4 -1 -14 5 -22 7 -12 9 -10 9 8 0 23 -5 28 -14 14z"/>
<path d="M3960 3831 c0 -5 9 -7 20 -4 11 3 20 7 20 9 0 2 -9 4 -20 4 -11 0
-20 -4 -20 -9z"/>
<path d="M2780 3755 c0 -3 9 -15 20 -27 l20 -22 0 21 c0 11 -7 24 -16 27 -19
7 -24 8 -24 1z"/>
<path d="M2689 3673 c9 -33 47 -44 58 -17 7 19 -20 44 -48 44 -14 0 -16 -5
-10 -27z"/>
<path d="M2811 3684 c0 -11 3 -14 6 -6 3 7 2 16 -1 19 -3 4 -6 -2 -5 -13z"/>
<path d="M2886 3660 c-20 -42 -20 -46 4 -70 11 -11 20 -17 20 -14 0 4 7 1 16
-7 13 -10 17 -10 24 1 7 12 10 11 16 -3 7 -20 34 -23 34 -4 0 7 5 4 11 -5 10
-18 -12 -75 -33 -89 -7 -4 -6 -9 0 -13 6 -4 18 10 28 29 11 23 20 32 24 25 5
-9 9 -9 14 -1 4 6 2 11 -3 11 -16 0 -14 27 2 33 7 3 20 23 29 45 l16 41 -24
-9 c-19 -8 -29 -5 -43 9 -9 9 -25 17 -34 15 -9 -1 -17 1 -17 6 0 4 -11 6 -25
5 -14 -2 -29 3 -34 12 -7 13 -11 9 -25 -17z"/>
<path d="M3107 3632 c-19 -21 -22 -42 -7 -42 6 0 9 3 9 8 -4 24 2 35 12 25 9
-9 7 -19 -6 -40 l-18 -28 26 18 c15 10 27 13 27 7 0 -6 5 -8 10 -5 6 4 10 22
8 40 -2 27 -5 32 -15 23 -9 -7 -13 -7 -13 1 0 16 -15 13 -33 -7z"/>
<path d="M2835 3620 c3 -5 8 -10 11 -10 2 0 4 5 4 10 0 6 -5 10 -11 10 -5 0
-7 -4 -4 -10z"/>
<path d="M3445 3620 c-3 -5 -1 -10 4 -10 6 0 11 5 11 10 0 6 -2 10 -4 10 -3 0
-8 -4 -11 -10z"/>
<path d="M2654 3611 c4 -5 1 -11 -5 -13 -5 -2 -7 -11 -4 -21 8 -18 25 -23 25
-7 0 6 7 10 15 10 21 0 19 17 -4 30 -24 12 -34 13 -27 1z"/>
<path d="M2800 3579 c0 -5 -4 -7 -10 -4 -5 3 -12 -6 -16 -20 -3 -14 -5 -27 -3
-28 2 -1 17 -13 32 -27 23 -20 27 -21 21 -5 -7 18 -6 18 16 2 19 -13 25 -13
36 -3 10 11 11 20 2 43 -13 36 -78 71 -78 42z"/>
<path d="M3417 3583 c-4 -3 -7 -11 -7 -17 0 -6 5 -5 12 2 6 6 9 14 7 17 -3 3
-9 2 -12 -2z"/>
<path d="M3675 3580 c-3 -5 -1 -10 4 -10 6 0 11 5 11 10 0 6 -2 10 -4 10 -3 0
-8 -4 -11 -10z"/>
<path d="M3066 3564 c-9 -24 -2 -26 12 -4 7 11 8 20 3 20 -5 0 -12 -7 -15 -16z"/>
<path d="M3425 3541 c-6 -11 9 -23 19 -14 9 9 7 23 -3 23 -6 0 -12 -4 -16 -9z"/>
<path d="M2595 3530 c-4 -6 -11 -8 -16 -5 -14 9 -11 -8 8 -34 9 -14 11 -21 5
-17 -7 4 -12 2 -12 -3 0 -14 23 -14 37 0 7 7 15 5 27 -7 28 -28 29 -9 0 25
-21 25 -22 30 -7 25 16 -6 16 -5 -2 9 -24 19 -32 21 -40 7z"/>
<path d="M3180 3525 c-14 -16 -5 -52 13 -52 7 0 12 14 12 34 0 36 -6 41 -25
18z"/>
<path d="M3728 3516 c-19 -14 -24 -36 -9 -36 5 0 18 -3 28 -6 14 -5 15 -4 4 4
-8 6 -12 19 -8 31 3 12 4 21 4 21 -1 0 -10 -7 -19 -14z"/>
<path d="M3080 3505 c-7 -9 -10 -18 -7 -21 3 -3 10 4 17 15 13 25 8 27 -10 6z"/>
<path d="M3007 3459 c-9 -17 -23 -29 -30 -26 -8 3 -12 -12 -13 -52 -1 -37 1
-49 6 -36 l9 20 0 -20 c1 -17 3 -17 11 -5 8 13 10 12 10 -2 0 -10 -4 -18 -9
-18 -5 0 -9 -20 -8 -44 1 -24 5 -42 9 -40 4 3 16 -6 27 -18 12 -12 21 -17 21
-11 0 7 9 14 19 18 15 4 18 13 15 38 -3 18 -7 38 -9 45 -5 13 13 52 29 63 4 4
5 17 1 29 -4 14 -3 20 3 16 5 -3 10 6 10 22 0 39 -12 52 -18 18 -3 -16 -16
-36 -29 -45 -24 -15 -24 -15 -17 13 7 28 0 66 -12 66 -4 0 -15 -14 -25 -31z"/>
<path d="M3124 3456 c-8 -22 3 -49 17 -40 8 4 9 -1 4 -17 -5 -19 -4 -21 4 -9
15 22 13 56 -4 70 -12 10 -16 9 -21 -4z"/>
<path d="M3235 3460 c-3 -5 1 -10 9 -10 9 0 16 5 16 10 0 6 -4 10 -9 10 -6 0
-13 -4 -16 -10z"/>
<path d="M2758 3433 c-3 -35 2 -55 20 -78 l18 -23 16 29 c9 16 13 31 8 34 -5
3 -7 12 -4 20 4 10 -3 18 -21 25 -34 13 -35 13 -37 -7z"/>
<path d="M2700 3418 c0 -9 5 -20 10 -23 13 -8 13 5 0 25 -8 13 -10 13 -10 -2z"/>
<path d="M3764 3395 c-18 -14 -18 -15 6 -11 14 3 28 5 33 5 4 1 7 6 7 11 0 15
-23 12 -46 -5z"/>
<path d="M3589 3374 c-12 -15 -11 -16 11 -9 35 10 49 25 23 25 -11 0 -27 -7
-34 -16z"/>
<path d="M2700 3376 c0 -2 7 -7 16 -10 8 -3 12 -2 9 4 -6 10 -25 14 -25 6z"/>
<path d="M3127 3350 c3 -11 7 -20 9 -20 2 0 4 9 4 20 0 11 -4 20 -9 20 -5 0
-7 -9 -4 -20z"/>
<path d="M3805 3360 c-13 -6 -15 -9 -5 -9 8 0 22 4 30 9 18 12 2 12 -25 0z"/>
<path d="M3805 3300 c-3 -5 -1 -10 4 -10 6 0 11 5 11 10 0 6 -2 10 -4 10 -3 0
-8 -4 -11 -10z"/>
<path d="M2775 3266 c10 -14 19 -26 22 -26 7 0 -17 39 -28 46 -6 3 -3 -5 6
-20z"/>
<path d="M2820 3281 c0 -6 4 -13 10 -16 6 -3 7 1 4 9 -7 18 -14 21 -14 7z"/>
<path d="M2920 3240 c0 -11 2 -20 4 -20 2 0 6 9 9 20 3 11 1 20 -4 20 -5 0 -9
-9 -9 -20z"/>
<path d="M2810 3241 c0 -18 18 -21 30 -6 10 13 9 15 -9 15 -11 0 -21 -4 -21
-9z"/>
<path d="M3793 3233 c9 -2 23 -2 30 0 6 3 -1 5 -18 5 -16 0 -22 -2 -12 -5z"/>
<path d="M2925 3200 c-3 -5 -1 -10 4 -10 6 0 11 5 11 10 0 6 -2 10 -4 10 -3 0
-8 -4 -11 -10z"/>
<path d="M3115 3200 c-3 -5 -1 -10 4 -10 6 0 11 5 11 10 0 6 -2 10 -4 10 -3 0
-8 -4 -11 -10z"/>
<path d="M3758 3203 c7 -3 16 -2 19 1 4 3 -2 6 -13 5 -11 0 -14 -3 -6 -6z"/>
<path d="M2695 3190 c3 -5 11 -10 16 -10 6 0 7 5 4 10 -3 6 -11 10 -16 10 -6
0 -7 -4 -4 -10z"/>
<path d="M2813 3185 c-3 -9 -3 -19 1 -22 3 -4 6 1 6 10 0 8 6 18 13 20 9 4 9
6 -1 6 -7 1 -15 -6 -19 -14z"/>
<path d="M2871 3174 c0 -11 3 -14 6 -6 3 7 2 16 -1 19 -3 4 -6 -2 -5 -13z"/>
<path d="M3425 3180 c10 -16 -44 -24 -83 -12 -41 13 -58 7 -21 -7 16 -5 -9 -7
-76 -5 -55 1 -104 -1 -110 -5 -5 -4 -19 -11 -30 -15 -16 -6 -18 -5 -7 5 14 15
16 29 2 29 -5 0 -17 -14 -26 -32 -9 -17 -32 -46 -51 -64 -20 -19 -36 -45 -38
-61 -17 -144 -27 -296 -20 -329 4 -21 7 -55 5 -74 -2 -19 -3 -43 -4 -52 0 -9
-4 -14 -8 -12 -4 3 -8 -2 -8 -11 0 -12 4 -14 19 -5 16 8 21 6 26 -10 3 -11 3
-24 0 -30 -3 -5 -2 -10 3 -10 5 0 26 -25 48 -55 21 -30 47 -55 57 -55 9 0 17
-6 17 -12 0 -7 19 -30 41 -50 23 -21 37 -38 30 -38 -10 0 -11 -40 -1 -50 3 -3
16 -29 30 -57 26 -55 40 -66 65 -57 17 7 20 25 5 40 -5 5 -11 23 -13 40 -2 17
-15 52 -30 79 -15 26 -27 53 -27 60 0 8 -16 22 -36 32 -27 13 -40 29 -49 56
-7 21 -20 44 -28 50 -21 16 -73 115 -82 156 -4 18 -13 44 -20 58 -8 15 -11 31
-7 37 9 16 9 66 0 66 -4 0 -8 7 -8 16 0 13 3 14 15 4 25 -20 38 -1 19 28 -9
15 -11 22 -4 15 11 -10 16 -8 25 10 6 12 19 21 28 21 9 -1 14 3 11 8 -8 13 35
0 55 -16 11 -8 13 -8 7 2 -5 8 1 12 21 12 82 0 203 115 212 203 1 4 8 7 16 7
8 0 15 5 15 11 0 8 15 9 45 5 41 -7 45 -5 45 14 0 11 -7 23 -15 26 -8 4 -15
12 -15 19 0 7 -7 16 -16 19 -23 9 -36 7 -29 -4z m-300 -60 c-3 -5 -12 -10 -18
-10 -7 0 -6 4 3 10 19 12 23 12 15 0z m150 -40 c-11 -5 -32 -9 -46 -9 -22 -1
-30 -9 -43 -41 -25 -64 -128 -112 -163 -77 -24 24 -9 44 45 57 51 12 129 59
101 61 -31 2 39 17 81 17 34 1 40 -2 25 -8z m42 -15 c-4 -8 -11 -15 -17 -15
-7 0 -7 6 0 21 13 23 26 19 17 -6z m-326 -222 c-8 -15 -10 -15 -11 -2 0 17 10
32 18 25 2 -3 -1 -13 -7 -23z"/>
<path d="M2717 3165 c-12 -11 -16 -12 -20 -2 -2 6 -8 9 -12 5 -12 -12 51 -69
69 -62 9 3 14 10 11 15 -3 4 -12 6 -20 2 -10 -3 -15 2 -15 17 0 11 5 18 10 15
6 -3 10 -2 10 4 0 18 -18 21 -33 6z"/>
<path d="M2930 3136 c0 -9 5 -16 10 -16 6 0 10 4 10 9 0 6 -4 13 -10 16 -5 3
-10 -1 -10 -9z"/>
<path d="M2690 3125 c0 -6 6 -17 13 -24 10 -10 9 -12 -3 -10 -32 6 -58 -11
-53 -34 4 -18 3 -19 -6 -7 -6 8 -11 10 -11 5 0 -13 21 -35 33 -35 4 0 5 5 2
10 -3 6 3 10 13 10 12 0 22 -9 25 -21 9 -32 24 -14 21 23 -3 30 -3 31 5 8 8
-22 9 -21 10 14 1 22 -2 37 -5 33 -4 -3 -15 4 -25 16 -10 12 -18 17 -19 12z"/>
<path d="M3517 3058 c3 -18 8 -35 12 -38 5 -3 11 -18 15 -35 8 -31 34 -67 45
-61 3 2 6 -7 6 -20 0 -21 -5 -24 -35 -24 -44 0 -73 -16 -47 -26 9 -3 28 -7 41
-8 13 0 22 -4 19 -8 -2 -5 2 -8 10 -8 10 0 15 -11 16 -32 2 -34 8 -81 11 -85
2 -2 3 -6 4 -10 1 -5 7 -18 14 -29 6 -12 8 -24 5 -28 -3 -3 -1 -6 5 -6 7 0 11
-5 10 -11 -2 -6 6 -16 17 -22 11 -7 23 -16 27 -22 11 -14 10 -27 -1 -21 -4 3
-7 -8 -5 -25 2 -16 0 -28 -5 -24 -12 7 -8 -14 7 -42 7 -13 18 -22 25 -20 7 1
11 -5 9 -14 -1 -9 7 -24 18 -34 18 -17 20 -17 14 -2 -5 13 -1 17 17 17 18 0
20 3 11 12 -16 16 -15 31 1 22 6 -4 3 3 -7 15 -11 12 -20 31 -21 41 -1 11 -10
29 -20 40 -13 14 -16 23 -8 28 15 10 3 96 -16 115 -5 5 -7 16 -4 24 3 7 -3 23
-12 33 -10 11 -14 20 -10 20 5 0 -1 10 -12 23 -14 14 -24 43 -28 79 -6 45 -12
59 -27 64 -16 5 -18 8 -7 15 10 6 11 9 2 9 -7 0 -12 3 -11 8 5 25 -18 85 -39
102 -38 30 -52 26 -46 -12z"/>
<path d="M2766 3067 c3 -10 9 -15 12 -12 3 3 0 11 -7 18 -10 9 -11 8 -5 -6z"/>
<path d="M2835 3067 c-5 -7 -11 -19 -13 -27 -1 -10 3 -8 13 4 8 11 15 23 15
28 0 11 -3 10 -15 -5z"/>
<path d="M2800 3011 c0 -6 4 -13 10 -16 6 -3 7 1 4 9 -7 18 -14 21 -14 7z"/>
<path d="M3734 2978 c3 -13 5 -23 6 -23 1 0 3 -8 5 -18 2 -11 7 -22 11 -25 4
-4 4 2 0 13 -6 16 -5 18 5 8 7 -7 21 -13 31 -13 16 0 17 3 6 22 -34 58 -72 80
-64 36z"/>
<path d="M3405 2970 c-3 -5 -1 -10 4 -10 6 0 11 5 11 10 0 6 -2 10 -4 10 -3 0
-8 -4 -11 -10z"/>
<path d="M3383 2925 c-29 -7 -70 -27 -92 -44 -21 -17 -43 -31 -48 -31 -5 0
-22 -13 -38 -30 -16 -16 -24 -30 -18 -30 6 0 9 -8 6 -19 -3 -13 2 -20 18 -24
27 -7 79 2 79 14 0 5 -7 6 -16 2 -12 -4 -15 -1 -12 13 2 10 10 18 16 17 7 -2
12 2 12 7 0 6 6 10 14 10 8 0 16 7 20 15 3 8 10 15 16 15 6 0 8 -6 4 -12 -4
-8 -3 -10 2 -5 5 5 9 13 9 19 0 6 8 12 17 14 9 1 35 10 57 20 40 18 53 33 29
35 -7 0 -4 4 7 9 11 5 15 9 8 9 -6 1 -17 3 -25 5 -7 2 -36 -2 -65 -9z m17 -34
c0 -5 -7 -14 -15 -21 -12 -10 -15 -10 -15 2 0 8 3 18 7 21 9 10 23 9 23 -2z"/>
<path d="M3852 2836 c7 -8 17 -12 22 -9 4 3 2 9 -5 14 -22 13 -31 11 -17 -5z"/>
<path d="M2635 2780 c3 -5 8 -10 11 -10 2 0 4 5 4 10 0 6 -5 10 -11 10 -5 0
-7 -4 -4 -10z"/>
<path d="M3833 2768 c-1 -10 2 -16 7 -13 6 3 7 -1 4 -9 -3 -9 -1 -16 4 -16 6
0 14 9 17 20 3 11 11 20 16 20 6 0 7 4 4 10 -10 17 -51 7 -52 -12z"/>
<path d="M3416 2772 c-2 -4 -1 -14 3 -20 8 -14 91 -6 91 8 0 16 -84 27 -94 12z"/>
<path d="M3910 2770 c0 -7 24 -20 36 -20 13 0 1 19 -16 23 -11 3 -20 2 -20 -3z"/>
<path d="M2596 2750 c9 -35 28 -50 45 -38 11 7 11 11 2 15 -7 2 -13 14 -13 25
0 16 -3 18 -14 9 -11 -9 -15 -9 -20 1 -3 7 -3 2 0 -12z"/>
<path d="M3218 2723 c6 -2 18 -2 25 0 6 3 1 5 -13 5 -14 0 -19 -2 -12 -5z"/>
<path d="M2574 2705 c-11 -27 1 -39 19 -21 17 17 15 36 -4 36 -5 0 -12 -7 -15
-15z"/>
<path d="M3200 2690 c0 -12 47 -12 75 0 15 6 8 9 -27 9 -27 1 -48 -3 -48 -9z"/>
<path d="M3308 2633 c6 -2 10 -9 6 -14 -7 -11 36 -12 54 0 10 6 8 10 -10 14
-27 8 -69 8 -50 0z"/>
<path d="M3266 2615 c4 -8 8 -15 10 -15 2 0 4 7 4 15 0 8 -4 15 -10 15 -5 0
-7 -7 -4 -15z"/>
<path d="M2605 2590 c-17 -6 -16 -7 8 -12 15 -3 27 -2 27 3 0 13 -14 17 -35 9z"/>
<path d="M3797 2581 c-6 -26 19 -61 44 -61 17 0 18 3 9 21 -7 11 -9 23 -6 26
8 8 -14 33 -29 33 -7 0 -15 -9 -18 -19z"/>
<path d="M3499 2567 c-21 -16 -6 -40 29 -49 19 -5 22 -2 22 22 0 16 -7 30 -16
34 -19 7 -16 8 -35 -7z"/>
<path d="M2750 2540 c0 -5 7 -10 15 -10 8 0 15 -5 15 -12 0 -6 3 -8 6 -5 8 8
-14 37 -27 37 -5 0 -9 -4 -9 -10z"/>
<path d="M2619 2512 c-7 -9 -13 -24 -13 -32 1 -8 2 -21 3 -29 0 -8 4 -12 7 -8
10 9 32 -16 27 -30 -3 -7 -3 -13 0 -13 3 0 10 13 15 29 9 25 8 29 -4 24 -18
-7 -19 23 0 34 11 7 10 11 -3 25 -16 16 -18 16 -32 0z"/>
<path d="M3265 2510 c-3 -5 3 -10 14 -10 11 0 23 5 26 10 3 6 -3 10 -14 10
-11 0 -23 -4 -26 -10z"/>
<path d="M3392 2493 c-19 -4 -20 -6 -7 -19 12 -13 21 -13 55 -3 62 19 24 36
-48 22z"/>
<path d="M3599 2463 c-11 -3 -15 -11 -12 -24 3 -10 1 -19 -5 -19 -8 0 -8 -9
-1 -29 8 -21 16 -28 33 -27 14 0 22 6 19 14 -3 6 0 12 5 12 8 0 8 10 0 33 -13
39 -18 45 -39 40z"/>
<path d="M3460 2411 c0 -6 0 -14 1 -17 0 -4 -5 -10 -12 -15 -10 -6 -7 -10 11
-17 30 -11 49 -6 46 14 -3 17 -46 50 -46 35z"/>
<path d="M3531 2366 c-11 -13 -11 -20 -3 -28 15 -15 24 -5 20 23 -3 21 -4 21
-17 5z"/>
<path d="M2646 2351 c-4 -7 -5 -15 -2 -18 9 -9 19 4 14 18 -4 11 -6 11 -12 0z"/>
<path d="M2510 2330 c0 -5 5 -10 11 -10 5 0 7 5 4 10 -3 6 -8 10 -11 10 -2 0
-4 -4 -4 -10z"/>
<path d="M3385 2329 c-4 -6 -5 -13 -2 -16 7 -7 27 6 27 18 0 12 -17 12 -25 -2z"/>
<path d="M2630 2293 c0 -13 49 -63 62 -63 4 0 9 4 12 9 6 9 -22 26 -38 22 -5
-1 -6 5 -2 14 4 10 2 14 -5 9 -6 -4 -15 0 -20 7 -6 10 -9 10 -9 2z"/>
<path d="M3701 2278 c11 -21 11 -22 -4 -9 -15 12 -17 11 -17 -8 0 -11 -4 -21
-9 -21 -9 0 1 -58 13 -79 12 -18 30 -13 56 18 41 47 38 76 -9 104 -38 23 -44
21 -30 -5z"/>
<path d="M3440 2221 c0 -5 7 -15 17 -22 15 -13 15 -12 4 9 -12 23 -21 28 -21
13z"/>
<path d="M3524 2172 c5 -9 -15 -37 -30 -43 -7 -3 -8 -15 -2 -37 7 -27 12 -31
26 -23 64 35 79 89 29 102 -15 4 -25 4 -23 1z"/>
<path d="M3293 2027 c-1 -23 -8 -46 -15 -52 -21 -16 -20 -33 3 -46 29 -15 36
-1 34 67 -3 67 -19 91 -22 31z"/>
<path d="M3655 2030 c-3 -5 -2 -10 4 -10 6 0 8 -7 4 -15 -3 -9 -8 -14 -10 -11
-3 3 -16 -7 -29 -21 -21 -22 -26 -24 -41 -12 -11 9 -14 10 -9 2 4 -8 2 -13 -7
-13 -7 0 -14 -8 -14 -17 0 -22 16 -45 27 -38 4 3 11 -2 14 -11 7 -17 36 -15
51 4 6 7 20 14 32 15 19 1 22 6 18 29 -4 22 -1 28 12 28 10 0 14 4 8 8 -5 4
-11 18 -13 32 -3 33 -33 52 -47 30z"/>
<path d="M2830 1950 c0 -5 5 -10 10 -10 6 0 10 5 10 10 0 6 -4 10 -10 10 -5 0
-10 -4 -10 -10z"/>
<path d="M3257 1924 c-10 -10 6 -45 31 -64 28 -23 50 -27 34 -7 -10 12 -12 18
-12 37 0 6 -7 10 -16 10 -8 0 -13 4 -10 9 6 9 -19 23 -27 15z"/>
<path d="M2807 1889 c4 -13 8 -18 11 -10 2 7 -1 18 -6 23 -8 8 -9 4 -5 -13z"/>
<path d="M3226 1874 c-11 -27 -7 -33 35 -54 54 -28 67 -21 34 18 -37 44 -61
56 -69 36z"/>
<path d="M3213 1815 c4 -8 2 -17 -4 -21 -18 -11 -27 -48 -15 -63 8 -11 8 -13
-1 -7 -8 4 -13 2 -13 -4 0 -7 7 -9 16 -6 9 3 22 6 30 6 8 0 14 7 14 15 0 8 6
15 13 15 7 1 5 6 -6 14 -16 12 -16 14 -2 20 9 3 13 2 10 -4 -4 -6 1 -7 11 -3
15 5 14 9 -10 30 -31 26 -51 30 -43 8z"/>
<path d="M3585 1800 c-3 -5 -13 -6 -23 -3 -9 3 11 -15 46 -40 69 -52 77 -56
62 -27 -8 15 -8 20 2 20 15 0 -53 59 -69 60 -6 0 -14 -4 -18 -10z"/>
<path d="M3507 1773 c-4 -3 -2 -12 5 -20 6 -8 7 -13 2 -12 -23 4 -33 -2 -27
-18 4 -11 3 -14 -5 -9 -19 11 -14 -5 6 -21 9 -8 11 -12 5 -8 -17 8 -16 -5 1
-27 12 -17 15 -17 51 1 49 24 52 48 13 89 -33 33 -40 37 -51 25z"/>
<path d="M2738 1763 c7 -3 16 -2 19 1 4 3 -2 6 -13 5 -11 0 -14 -3 -6 -6z"/>
<path d="M3560 1761 c0 -25 102 -92 117 -77 4 3 0 6 -8 6 -8 0 -31 18 -53 40
-38 39 -56 49 -56 31z"/>
<path d="M2740 1741 c0 -5 7 -12 16 -15 14 -5 15 -4 4 9 -14 17 -20 19 -20 6z"/>
<path d="M3160 1685 c0 -9 6 -12 15 -9 8 4 15 7 15 9 0 2 -7 5 -15 9 -9 3 -15
0 -15 -9z"/>
<path d="M2946 1612 c-3 -6 -1 -14 5 -17 15 -10 25 3 12 16 -7 7 -13 7 -17 1z"/>
<path d="M2661 1474 c0 -11 3 -14 6 -6 3 7 2 16 -1 19 -3 4 -6 -2 -5 -13z"/>
<path d="M3494 1428 c3 -12 0 -18 -9 -18 -25 0 -17 -27 16 -55 40 -33 76 -31
71 4 -2 14 -11 36 -20 50 -15 22 -17 23 -21 6 -3 -17 -5 -17 -23 6 -13 16 -18
18 -14 7z"/>
<path d="M3046 1388 c3 -5 10 -6 15 -3 13 9 11 12 -6 12 -8 0 -12 -4 -9 -9z"/>
<path d="M2966 1367 c3 -10 9 -15 12 -12 3 3 0 11 -7 18 -10 9 -11 8 -5 -6z"/>
<path d="M3626 1351 c-13 -21 4 -71 25 -71 25 0 25 30 1 61 -13 15 -21 19 -26
10z"/>
<path d="M2950 1321 c0 -39 14 -48 17 -10 1 15 -2 31 -7 34 -6 4 -10 -7 -10
-24z"/>
<path d="M3545 1251 c-7 -23 14 -73 29 -68 25 8 17 87 -9 87 -7 0 -16 -8 -20
-19z"/>
<path d="M3535 1160 c-3 -5 -1 -10 4 -10 6 0 11 5 11 10 0 6 -2 10 -4 10 -3 0
-8 -4 -11 -10z"/>
<path d="M3415 970 c-3 -5 -1 -10 4 -10 6 0 11 5 11 10 0 6 -2 10 -4 10 -3 0
-8 -4 -11 -10z"/>
<path d="M2303 4033 c-7 -3 -13 -9 -13 -14 0 -6 4 -8 9 -4 6 3 14 -2 19 -11 5
-9 12 -12 15 -7 9 14 -15 42 -30 36z"/>
<path d="M2550 3814 c0 -8 5 -12 10 -9 6 4 8 11 5 16 -9 14 -15 11 -15 -7z"/>
<path d="M2217 3420 c-3 -11 -2 -20 3 -20 4 0 10 9 13 20 3 11 2 20 -3 20 -4
0 -10 -9 -13 -20z"/>
<path d="M2267 3413 c-4 -3 -7 -16 -6 -27 0 -19 1 -19 10 3 10 24 8 36 -4 24z"/>
<path d="M1981 3414 c0 -11 3 -14 6 -6 3 7 2 16 -1 19 -3 4 -6 -2 -5 -13z"/>
<path d="M2390 3141 c0 -6 4 -13 10 -16 6 -3 7 1 4 9 -7 18 -14 21 -14 7z"/>
<path d="M2440 2896 c-9 -12 -8 -15 8 -13 12 0 18 6 15 14 -6 16 -8 16 -23 -1z"/>
<path d="M2516 1705 c-3 -8 -1 -15 4 -15 6 0 10 7 10 15 0 8 -2 15 -4 15 -2 0
-6 -7 -10 -15z"/>
<path d="M2582 1507 c-24 -25 -28 -37 -12 -37 6 0 10 7 10 15 0 8 4 15 9 15 5
0 11 7 15 15 7 21 3 19 -22 -8z"/>
<path d="M3570 980 c0 -5 7 -7 15 -4 8 4 15 8 15 10 0 2 -7 4 -15 4 -8 0 -15
-4 -15 -10z"/>
<path d="M3540 861 c-13 -25 -13 -61 1 -61 8 0 39 58 39 75 0 14 -30 3 -40
-14z"/>
<path d="M3356 734 c-24 -23 -38 -53 -31 -64 10 -15 22 -12 45 12 34 36 20 87
-14 52z"/>
<path d="M3487 720 c-3 -12 -15 -24 -26 -27 -11 -3 -18 -9 -16 -14 8 -11 77
31 72 44 -6 20 -24 18 -30 -3z"/>
<path d="M2100 819 c0 -6 7 -9 15 -5 8 3 15 1 15 -5 0 -6 5 -7 10 -4 18 11 10
25 -15 25 -14 0 -25 -5 -25 -11z"/>
<path d="M2170 755 c-11 -13 -10 -14 4 -9 9 3 16 10 16 15 0 13 -6 11 -20 -6z"/>
<path d="M2075 740 c-3 -5 1 -10 9 -10 9 0 16 5 16 10 0 6 -4 10 -9 10 -6 0
-13 -4 -16 -10z"/>
<path d="M2120 695 c-11 -13 -10 -14 4 -9 9 3 16 10 16 15 0 13 -6 11 -20 -6z"/>
<path d="M2157 679 c-5 -20 -5 -20 16 -3 12 11 24 20 26 21 2 2 -5 3 -16 3
-13 0 -23 -8 -26 -21z"/>
<path d="M2150 634 c0 -8 5 -12 10 -9 6 4 8 11 5 16 -9 14 -15 11 -15 -7z"/>
<path d="M2450 430 c0 -5 5 -10 10 -10 6 0 10 5 10 10 0 6 -4 10 -10 10 -5 0
-10 -4 -10 -10z"/>
<path d="M2994 371 c3 -5 19 -14 35 -21 16 -6 31 -20 34 -31 4 -16 2 -17 -16
-7 -12 6 -19 7 -15 3 4 -5 3 -13 -2 -20 -7 -8 -2 -22 16 -46 19 -26 32 -34 59
-35 l34 -2 -25 43 c-22 38 -23 44 -8 47 15 3 15 5 -2 26 -18 21 -121 62 -110
43z"/>
<path d="M2560 248 c0 -21 -5 -38 -11 -38 -5 0 -7 -5 -3 -12 5 -7 2 -9 -7 -6
-11 4 -15 -2 -17 -21 -1 -20 0 -23 8 -11 6 9 10 10 10 3 0 -6 -5 -15 -10 -18
-7 -4 -7 -12 -2 -18 5 -7 9 -23 10 -37 1 -14 6 -26 11 -28 7 -2 7 -12 0 -28
-5 -14 -9 -27 -9 -28 0 -2 41 -4 90 -5 87 -2 90 -1 90 21 l0 22 16 -22 c11
-16 25 -22 55 -22 25 0 38 4 34 10 -4 6 -10 8 -15 5 -5 -3 -15 3 -22 15 -16
25 -29 26 -22 2 4 -12 0 -10 -15 7 -12 13 -21 29 -21 37 0 8 -5 14 -11 14 -6
0 -9 7 -5 15 3 8 0 18 -7 22 -7 5 -20 22 -29 38 -10 17 -22 29 -28 27 -6 -1
-16 9 -22 23 -6 14 -15 25 -21 25 -5 0 -17 10 -28 23 l-18 22 -1 -37z m-3
-170 c-3 -8 -6 -5 -6 6 -1 11 2 17 5 13 3 -3 4 -12 1 -19z"/>
<path d="M1766 164 c-4 -10 -12 -14 -23 -10 -10 4 -14 4 -10 0 4 -4 1 -14 -6
-22 -9 -13 -9 -14 1 -8 7 4 12 2 12 -4 0 -6 8 -10 17 -8 12 2 18 14 20 36 3
35 -1 41 -11 16z"/>
<path d="M1808 140 c-10 -10 -13 -22 -9 -25 8 -5 20 6 35 33 11 19 -8 14 -26
-8z"/>
<path d="M1850 114 c11 -28 5 -48 -12 -38 -7 5 -9 0 -6 -14 4 -15 2 -22 -8
-22 -8 0 -14 -9 -14 -20 0 -19 7 -20 99 -20 71 0 101 4 104 12 3 10 8 10 21
-1 14 -12 16 -12 10 2 -3 8 0 25 6 37 9 16 9 25 1 33 -8 8 -11 4 -11 -15 0
-15 -5 -30 -12 -34 -7 -4 -8 -3 -4 4 4 7 1 12 -8 12 -10 0 -16 -9 -17 -22 0
-22 -1 -22 -8 -3 -5 11 -4 25 2 33 5 7 7 15 3 19 -3 3 -6 0 -6 -7 0 -10 -3
-11 -11 -3 -8 8 -8 17 1 34 11 23 10 23 -4 5 -9 -11 -16 -24 -16 -30 0 -5 -3
-6 -7 -3 -3 4 -13 1 -21 -6 -13 -10 -15 -9 -10 8 3 11 9 29 14 40 6 16 3 15
-14 -5 -18 -22 -21 -23 -27 -8 -4 9 -13 14 -21 11 -8 -3 -14 1 -14 11 0 9 -4
16 -10 16 -6 0 -6 -9 0 -26z"/>
<path d="M2920 106 c0 -14 5 -28 10 -31 6 -3 10 -22 10 -41 l0 -34 55 0 c30 0
55 2 55 4 0 7 -116 126 -123 126 -4 0 -7 -11 -7 -24z"/>
<path d="M2431 107 c-6 -8 -8 -17 -4 -20 11 -12 19 -7 20 13 2 24 -1 25 -16 7z"/>
<path d="M2270 90 c0 -5 5 -10 11 -10 5 0 7 5 4 10 -3 6 -8 10 -11 10 -2 0 -4
-4 -4 -10z"/>
<path d="M2349 68 c0 -22 -1 -22 -9 -3 -9 21 -10 19 -16 -32 -4 -32 -3 -33 36
-33 39 0 40 1 40 33 -1 30 -1 31 -15 13 -14 -19 -15 -19 -15 6 0 33 -20 48
-21 16z"/>
<path d="M2490 68 c0 -14 -3 -18 -8 -12 -7 11 -29 11 -58 0 -19 -7 -18 -56 1
-56 11 0 14 7 10 28 l-6 27 13 -25 c7 -14 23 -26 36 -28 20 -3 22 1 22 42 0
25 -2 46 -5 46 -3 0 -5 -10 -5 -22z"/>
<path d="M1777 63 c-4 -3 -7 -13 -7 -22 1 -13 3 -13 11 2 11 19 8 33 -4 20z"/>
<path d="M2510 65 c0 -15 18 -40 24 -34 3 3 -1 14 -9 25 -8 10 -14 15 -15 9z"/>
<path d="M1026 34 c-4 -11 -1 -14 11 -12 9 2 18 9 21 16 6 18 -25 15 -32 -4z"/>
</g>
</svg>
