<?xml version="1.0" standalone="no"?>
<!DOCTYPE svg PUBLIC "-//W3C//DTD SVG 20010904//EN"
 "http://www.w3.org/TR/2001/REC-SVG-20010904/DTD/svg10.dtd">
<svg version="1.0" xmlns="http://www.w3.org/2000/svg"
 width="900.000000pt" height="900.000000pt" viewBox="0 0 900.000000 900.000000"
 preserveAspectRatio="xMidYMid meet">
<metadata>
Created by potrace 1.14, written by Peter Selinger 2001-2017
</metadata>
<g transform="translate(0.000000,900.000000) scale(0.100000,-0.100000)"
fill="#000000" stroke="none">
<path d="M1875 6665 c-563 -90 -1004 -528 -1107 -1100 -20 -114 -15 -352 10
-472 59 -275 169 -479 362 -673 260 -261 575 -393 940 -393 362 0 680 131 936
387 55 56 115 122 132 148 l32 47 48 -14 c26 -8 367 -100 757 -205 391 -105
841 -227 1000 -270 160 -43 387 -104 505 -136 118 -31 216 -58 217 -58 1 -1 9
-46 17 -101 78 -521 440 -936 946 -1086 168 -50 411 -64 585 -34 558 96 992
528 1091 1085 22 122 22 324 0 450 -110 635 -662 1101 -1302 1101 -409 0 -788
-180 -1040 -493 -32 -40 -61 -76 -64 -81 -3 -4 -28 -1 -56 7 -27 8 -593 162
-1259 341 -665 179 -1211 328 -1214 330 -2 3 -10 51 -18 106 -55 396 -319 775
-674 967 -115 62 -297 124 -429 147 -81 14 -327 14 -415 0z"/>
</g>
</svg>
